<svg width="15" height="15" viewBox="0 0 15 15" fill="none" xmlns="http://www.w3.org/2000/svg">
<path d="M13.0714 1H5.64281C5.12999 1 4.71423 1.41575 4.71423 1.92858C4.71423 2.44141 5.12999 2.85717 5.64281 2.85717H10.8296L1.27198 12.4149C0.909338 12.7775 0.909338 13.3654 1.27198 13.728C1.45325 13.9093 1.69089 14 1.92853 14C2.16617 14 2.40385 13.9094 2.58516 13.728L12.1428 4.17034V9.35717C12.1428 9.87 12.5586 10.2857 13.0714 10.2857C13.5842 10.2857 14 9.87 14 9.35717V1.92858C14 1.41575 13.5842 1 13.0714 1Z" fill="#E01F35" stroke="#E01F35" stroke-width="0.4"/>
</svg>
