<svg width="200" height="55" viewBox="0 0 200 55" fill="none" xmlns="http://www.w3.org/2000/svg">
<path d="M76.0109 1.13807L58.8344 45.9479H68.0604L71.5914 36.5853H89.8158L93.3621 45.9479H102.52L85.4496 1.13807H76.0109ZM74.758 28.3607L80.7567 12.5947L86.7329 28.3607H74.758ZM113.545 34.3926L106.096 14.4688H97.2955L109.293 45.9479H118.018L129.803 14.4688H121.002L113.545 34.3926ZM140.875 14.4688H132.499V45.9479H140.875V14.4688ZM136.683 12.2002C140.055 12.2002 142.788 9.46906 142.788 6.10009C142.788 2.7311 140.055 0 136.683 0C133.311 0 130.578 2.7311 130.578 6.10009C130.578 9.46906 133.311 12.2002 136.683 12.2002ZM157.474 6.06973H149.121V14.4156H144.223V22.0027H149.121V35.3789C149.121 42.9662 153.305 46.2286 159.198 46.2286C161.186 46.2548 163.159 45.8698 164.992 45.0982V37.2984C163.991 37.6645 162.936 37.8569 161.871 37.8675C159.312 37.8675 157.466 36.8736 157.466 33.4669V22.0027H164.992V14.4915H157.474V6.06973ZM182.601 13.8997C179.371 13.8982 176.214 14.8538 173.528 16.6457C170.842 18.4376 168.748 20.9851 167.511 23.9661C166.275 26.9472 165.951 30.2276 166.58 33.3927C167.21 36.5576 168.765 39.4649 171.049 41.7468C173.333 44.0286 176.242 45.5823 179.41 46.2115C182.578 46.8406 185.861 46.517 188.844 45.2813C191.828 44.0458 194.378 41.9538 196.171 39.2702C197.963 36.5864 198.921 33.4316 198.919 30.2045C198.917 25.8808 197.196 21.7349 194.138 18.6774C191.077 15.6202 186.928 13.9017 182.601 13.8997ZM182.601 38.1786C181.028 38.1801 179.49 37.7155 178.182 36.8436C176.873 35.9716 175.853 34.7316 175.25 33.2801C174.647 31.8287 174.489 30.2313 174.795 28.6898C175.101 27.1484 175.857 25.7323 176.969 24.6206C178.08 23.5088 179.497 22.7515 181.039 22.4444C182.582 22.1371 184.18 22.2941 185.633 22.895C187.086 23.4962 188.328 24.5142 189.204 25.8208C190.077 27.1273 190.543 28.6634 190.543 30.235C190.539 32.3363 189.701 34.3502 188.211 35.8341C186.721 37.318 184.705 38.1504 182.601 38.1484V38.1786Z" fill="#171717"/>
<path d="M16.326 50.4167C25.3426 50.4167 32.6521 43.1134 32.6521 34.1042C32.6521 25.0952 25.3426 17.7919 16.326 17.7919C7.30941 17.7919 0 25.0952 0 34.1042C0 43.1134 7.30941 50.4167 16.326 50.4167Z" fill="#04E061"/>
<path d="M44.6422 48.3606C50.0899 48.3606 54.5061 43.9481 54.5061 38.505C54.5061 33.0618 50.0899 28.6492 44.6422 28.6492C39.1945 28.6492 34.7782 33.0618 34.7782 38.505C34.7782 43.9481 39.1945 48.3606 44.6422 48.3606Z" fill="#FF4053"/>
<path d="M19.447 15.6751C22.8187 15.6751 25.5521 12.944 25.5521 9.57506C25.5521 6.20607 22.8187 3.47498 19.447 3.47498C16.0752 3.47498 13.3418 6.20607 13.3418 9.57506C13.3418 12.944 16.0752 15.6751 19.447 15.6751Z" fill="#965EEB"/>
<path d="M40.8075 26.5247C48.1381 26.5247 54.0809 20.587 54.0809 13.2624C54.0809 5.93776 48.1381 0 40.8075 0C33.4767 0 27.5339 5.93776 27.5339 13.2624C27.5339 20.587 33.4767 26.5247 40.8075 26.5247Z" fill="#00AAFF"/>
</svg>
