<svg width="160" height="44" viewBox="0 0 160 44" fill="none" xmlns="http://www.w3.org/2000/svg">
<path d="M60.8087 0.91046L47.0675 36.7583H54.4483L57.2731 29.2682H71.8526L74.6896 36.7583H82.0159L68.3597 0.91046H60.8087ZM59.8064 22.6886L64.6054 10.0757L69.3863 22.6886H59.8064ZM90.8363 27.5141L84.8769 11.575H77.8364L87.4344 36.7583H94.4144L103.843 11.575H96.8018L90.8363 27.5141ZM112.7 11.575H105.999V36.7583H112.7V11.575ZM109.346 9.76012C112.044 9.76012 114.23 7.57524 114.23 4.88007C114.23 2.18488 112.044 0 109.346 0C106.649 0 104.462 2.18488 104.462 4.88007C104.462 7.57524 106.649 9.76012 109.346 9.76012ZM125.979 4.85578H119.297V11.5325H115.379V17.6022H119.297V28.3031C119.297 34.3729 122.644 36.9829 127.358 36.9829C128.949 37.0038 130.527 36.6959 131.993 36.0785V29.8387C131.193 30.1316 130.349 30.2855 129.497 30.294C127.449 30.294 125.973 29.4989 125.973 26.7736V17.6022H131.993V11.5932H125.979V4.85578ZM146.081 11.1198C143.497 11.1186 140.971 11.8831 138.822 13.3166C136.673 14.7501 134.998 16.7881 134.009 19.1729C133.02 21.5578 132.761 24.1821 133.264 26.7142C133.768 29.2461 135.012 31.5719 136.839 33.3975C138.666 35.2229 140.994 36.4659 143.528 36.9692C146.062 37.4725 148.688 37.2136 151.075 36.225C153.462 35.2367 155.502 33.563 156.937 31.4161C158.371 29.2691 159.137 26.7453 159.135 24.1636C159.134 20.7046 157.757 17.3879 155.31 14.942C152.862 12.4962 149.543 11.1214 146.081 11.1198ZM146.081 30.5429C144.822 30.5441 143.592 30.1724 142.545 29.4749C141.499 28.7773 140.682 27.7853 140.2 26.6241C139.718 25.4629 139.591 24.185 139.836 22.9519C140.08 21.7187 140.686 20.5858 141.575 19.6965C142.464 18.8071 143.598 18.2012 144.831 17.9555C146.065 17.7097 147.344 17.8353 148.506 18.316C149.669 18.7969 150.663 19.6114 151.363 20.6567C152.062 21.7018 152.435 22.9307 152.435 24.188C152.432 25.8691 151.761 27.4802 150.569 28.6673C149.377 29.8544 147.764 30.5203 146.081 30.5187V30.5429Z" fill="#171717"/>
<path d="M13.0608 40.3333C20.2741 40.3333 26.1217 34.4907 26.1217 27.2833C26.1217 20.0761 20.2741 14.2335 13.0608 14.2335C5.84753 14.2335 0 20.0761 0 27.2833C0 34.4907 5.84753 40.3333 13.0608 40.3333Z" fill="#04E061"/>
<path d="M35.7138 38.6885C40.0719 38.6885 43.6049 35.1585 43.6049 30.804C43.6049 26.4494 40.0719 22.9193 35.7138 22.9193C31.3556 22.9193 27.8225 26.4494 27.8225 30.804C27.8225 35.1585 31.3556 38.6885 35.7138 38.6885Z" fill="#FF4053"/>
<path d="M15.5576 12.5401C18.255 12.5401 20.4417 10.3552 20.4417 7.66004C20.4417 4.96485 18.255 2.77997 15.5576 2.77997C12.8602 2.77997 10.6735 4.96485 10.6735 7.66004C10.6735 10.3552 12.8602 12.5401 15.5576 12.5401Z" fill="#965EEB"/>
<path d="M32.646 21.2197C38.5105 21.2197 43.2647 16.4696 43.2647 10.6099C43.2647 4.75021 38.5105 0 32.646 0C26.7814 0 22.0272 4.75021 22.0272 10.6099C22.0272 16.4696 26.7814 21.2197 32.646 21.2197Z" fill="#00AAFF"/>
</svg>
