<svg width="118" height="35" viewBox="0 0 118 35" fill="none" xmlns="http://www.w3.org/2000/svg">
<path d="M43.1701 10.538C44.7241 10.538 46.5151 11.0527 47.6214 12.2717L46.041 14.8723C45.3826 14.2222 44.3817 13.7616 43.4071 13.7616C41.616 13.7616 40.7205 15.1432 40.7205 16.5248C40.7205 17.9064 41.6424 19.3963 43.5388 19.3963C44.6187 19.3963 45.804 18.7191 46.5942 18.0147L47.9638 20.7237C46.8576 21.8886 45.0401 22.62 43.1437 22.62C39.1401 22.62 36.9013 19.7485 36.9013 16.579C36.9276 13.4637 39.1665 10.538 43.1701 10.538Z" fill="white"/>
<path d="M56.208 15.1432H56.5241V14.9536C56.5241 13.9784 55.7603 13.6804 54.9437 13.6804C53.8638 13.6804 52.7576 14.168 51.862 14.764L50.5451 12.0279C51.4933 11.2694 53.4687 10.538 55.2862 10.538C58.3678 10.538 60.2906 12.2988 60.2906 15.2245V22.322H56.8665V21.6177C56.8665 21.2384 56.9192 20.9134 56.9192 20.9134H56.8665C56.129 21.9969 54.812 22.5929 53.5478 22.5929C51.3879 22.5929 49.8866 21.0759 49.8866 19.0712C49.8866 15.983 53.4424 15.1432 56.208 15.1432ZM54.654 19.6943C55.7339 19.6943 56.5768 18.6107 56.5768 17.6626V17.3375H56.2344C55.0754 17.3375 53.6004 17.6626 53.6004 18.692C53.6004 19.2609 53.9692 19.6943 54.654 19.6943Z" fill="white"/>
<path d="M64.4259 14.0325H63.0035V10.9984H64.5576V7.69348H68.2187V10.9984H70.5629V14.0325H68.2187V17.5542C68.2187 18.8545 69.5093 19.0441 70.2205 19.0441C70.3522 19.0441 70.4839 19.0441 70.7209 19.017V22.3761C70.4312 22.4032 70.1415 22.4303 69.6937 22.4303C67.9026 22.4303 64.4522 21.9427 64.4522 18.0689V14.0325H64.4259Z" fill="white"/>
<path d="M79.3602 15.1432H79.6763V14.9536C79.6763 13.9784 78.9125 13.6804 78.0959 13.6804C77.016 13.6804 75.9098 14.168 75.0142 14.764L73.6973 12.0279C74.6455 11.2694 76.6209 10.538 78.4384 10.538C81.5201 10.538 83.4428 12.2988 83.4428 15.2245V22.322H80.0187V21.6177C80.0187 21.2384 80.0714 20.9134 80.0714 20.9134H80.0187C79.2812 21.9969 77.9642 22.5929 76.7 22.5929C74.5401 22.5929 73.0388 21.0759 73.0388 19.0712C73.0124 15.983 76.5946 15.1432 79.3602 15.1432ZM77.8062 19.6943C78.8861 19.6943 79.729 18.6107 79.729 17.6626V17.3375H79.3866C78.2276 17.3375 76.7526 17.6626 76.7526 18.692C76.7526 19.2609 77.1214 19.6943 77.8062 19.6943Z" fill="white"/>
<path d="M87.6308 14.0325H86.2611V10.9985H87.6308V10.5379C87.6308 6.74536 90.9495 6.23065 92.7669 6.23065C93.162 6.23065 93.5045 6.23065 93.8995 6.28483V9.5627C93.8205 9.53561 93.5835 9.50852 93.2937 9.50852C92.5562 9.50852 91.3973 9.64397 91.3973 10.6192V10.9714H93.4518V14.0325H91.3973V22.322H87.6308V14.0325Z" fill="white"/>
<path d="M101.775 10.538C105.331 10.538 108.149 12.976 108.149 16.6061C108.149 20.209 105.331 22.5929 101.801 22.5929C98.2719 22.5929 95.4536 20.209 95.4536 16.6061C95.4536 12.976 98.2719 10.538 101.775 10.538ZM101.801 19.3692C103.171 19.3692 104.356 18.3127 104.356 16.6061C104.356 14.8723 103.171 13.7616 101.801 13.7616C100.432 13.7616 99.2464 14.8452 99.2464 16.6061C99.2464 18.3127 100.432 19.3692 101.801 19.3692Z" fill="white"/>
<path d="M111.705 14.0325H110.283V10.9984H111.837V7.69348H115.498V10.9984H117.842V14.0325H115.498V17.5542C115.498 18.8545 116.788 19.0441 117.5 19.0441C117.631 19.0441 117.763 19.0441 118 19.017V22.3761C117.71 22.4032 117.421 22.4303 116.973 22.4303C115.182 22.4303 111.731 21.9427 111.731 18.0689V14.0325H111.705Z" fill="white"/>
<path d="M49.5969 28.0921C50.1236 28.0921 50.6768 28.2817 50.9665 28.7152H50.9928C50.9928 28.7152 50.9665 28.5797 50.9665 28.4172V26.2771H52.1254V32.9954H51.0192V32.589C51.0192 32.3994 51.0455 32.291 51.0455 32.291H51.0192C50.7558 32.7786 50.2027 33.1308 49.5442 33.1308C48.2799 33.1308 47.4634 32.1014 47.4634 30.6115C47.4897 29.0673 48.3589 28.0921 49.5969 28.0921ZM49.8339 32.1285C50.4397 32.1285 51.0192 31.668 51.0192 30.6115C51.0192 29.853 50.6504 29.1215 49.8603 29.1215C49.2281 29.1215 48.675 29.6633 48.675 30.6115C48.6486 31.5325 49.1491 32.1285 49.8339 32.1285Z" fill="white"/>
<path d="M54.1009 26.3041H55.2598V27.3877H54.1009V26.3041ZM54.1009 28.2004H55.2598V33.0224H54.1009V28.2004Z" fill="white"/>
<path d="M59.0263 33.9977C59.7375 33.9977 60.3433 33.6726 60.3433 32.8328V32.5348C60.3433 32.4265 60.3696 32.291 60.3696 32.291H60.3433C60.0799 32.7245 59.6585 32.9683 59.0263 32.9683C57.683 32.9683 56.9192 31.8576 56.9192 30.5302C56.9192 29.2028 57.6303 28.1192 59 28.1192C59.5268 28.1192 60.0799 28.3088 60.396 28.7423H60.4223C60.4223 28.7423 60.396 28.6881 60.396 28.6068V28.2276H61.5022V32.7245C61.5022 34.3769 60.2379 35 59.0263 35C58.4469 35 57.8147 34.8375 57.3406 34.5937L57.7094 33.6726C58.1045 33.8622 58.5786 33.9977 59.0263 33.9977ZM59.3161 31.9118C59.8692 31.9118 60.396 31.5867 60.396 30.5031C60.396 29.3924 59.8692 29.1215 59.237 29.1215C58.5259 29.1215 58.1308 29.6633 58.1308 30.476C58.1308 31.2887 58.5522 31.9118 59.3161 31.9118Z" fill="white"/>
<path d="M63.4777 26.3041H64.6366V27.3877H63.4777V26.3041ZM63.4777 28.2004H64.6366V33.0224H63.4777V28.2004Z" fill="white"/>
<path d="M66.8228 29.2299H66.217V28.2817H66.8491V26.9001H67.9817V28.2817H69.0617V29.2299H67.9817V31.1261C67.9817 31.9118 68.5875 32.0472 68.9036 32.0472C68.9563 32.0472 69.0353 32.0472 69.1143 32.0201V33.0766C69.0353 33.0766 68.9036 33.1037 68.7456 33.1037C68.0871 33.1037 66.7964 32.9141 66.7964 31.2887V29.2299H66.8228Z" fill="white"/>
<path d="M73.0915 29.9884H73.3022V29.9342C73.3022 29.3111 72.9071 29.0673 72.4067 29.0673C71.9589 29.0673 71.4848 29.257 71.0897 29.5278L70.6683 28.661C71.0634 28.3359 71.8009 28.065 72.512 28.065C73.75 28.065 74.4611 28.7693 74.4611 29.9884V33.0224H73.3812V32.6161C73.3812 32.4265 73.4076 32.2639 73.4076 32.2639H73.3812C73.0915 32.7786 72.5384 33.1308 71.9063 33.1308C71.0634 33.1308 70.3522 32.5619 70.3522 31.6679C70.3522 30.2322 72.0643 29.9884 73.0915 29.9884ZM72.2223 32.2368C72.8808 32.2368 73.3022 31.5596 73.3022 30.9636V30.8282H73.0915C72.5121 30.8282 71.5112 30.9094 71.5112 31.5867C71.5112 31.9118 71.7482 32.2368 72.2223 32.2368Z" fill="white"/>
<path d="M76.3576 26.3041H77.5165V31.3428C77.5165 31.8846 77.7009 31.993 77.9906 31.993C78.0433 31.993 78.096 31.993 78.175 31.993V33.0495C78.096 33.0495 77.9643 33.0766 77.8063 33.0766C77.1741 33.0766 76.3576 32.914 76.3576 31.5325V26.3041Z" fill="white"/>
<path d="M85.0759 29.9884H85.2866V29.9342C85.2866 29.3111 84.8915 29.0673 84.3911 29.0673C83.9433 29.0673 83.4692 29.257 83.0741 29.5278L82.6527 28.661C83.0478 28.3359 83.7853 28.065 84.4964 28.065C85.7344 28.065 86.4455 28.7693 86.4455 29.9884V33.0224H85.3656V32.6161C85.3656 32.4265 85.392 32.2639 85.392 32.2639H85.3656C85.0759 32.7786 84.5228 33.1308 83.8906 33.1308C83.0478 33.1308 82.3366 32.5619 82.3366 31.6679C82.3366 30.2322 84.0223 29.9884 85.0759 29.9884ZM84.2067 32.2368C84.8652 32.2368 85.2866 31.5596 85.2866 30.9636V30.8282H85.0759C84.4964 30.8282 83.4955 30.9094 83.4955 31.5867C83.4955 31.9118 83.7326 32.2368 84.2067 32.2368Z" fill="white"/>
<path d="M90.1594 33.9977C90.8705 33.9977 91.4763 33.6726 91.4763 32.8328V32.5348C91.4763 32.4265 91.5027 32.291 91.5027 32.291H91.4763C91.2129 32.7245 90.7915 32.9683 90.1594 32.9683C88.8161 32.9683 88.0522 31.8576 88.0522 30.5302C88.0522 29.2028 88.7634 28.1192 90.133 28.1192C90.6598 28.1192 91.2129 28.3088 91.529 28.7423H91.5553C91.5553 28.7423 91.529 28.6881 91.529 28.6068V28.2276H92.6352V32.7245C92.6352 34.3769 91.371 35 90.1594 35C89.5799 35 88.9478 34.8375 88.4737 34.5937L88.8424 33.6726C89.2375 33.8622 89.7116 33.9977 90.1594 33.9977ZM90.4491 31.9118C91.0022 31.9118 91.529 31.5867 91.529 30.5031C91.529 29.3924 91.0022 29.1215 90.3701 29.1215C89.6589 29.1215 89.2638 29.6633 89.2638 30.476C89.2638 31.2887 89.6589 31.9118 90.4491 31.9118Z" fill="white"/>
<path d="M96.7179 28.0921C98.0612 28.0921 98.7987 29.0944 98.7987 30.3947C98.7987 30.5573 98.7724 30.7198 98.7724 30.8553H95.5326C95.6116 31.695 96.2438 32.1285 96.9549 32.1285C97.4291 32.1285 97.9295 31.9118 98.2983 31.5867L98.746 32.4536C98.2719 32.887 97.5344 33.1579 96.8496 33.1579C95.2955 33.1579 94.321 31.993 94.321 30.6385C94.321 29.1215 95.2955 28.0921 96.7179 28.0921ZM97.6398 30.0155C97.6398 29.3653 97.2183 28.9861 96.6915 28.9861C96.0857 28.9861 95.6643 29.3924 95.5589 30.0155H97.6398Z" fill="white"/>
<path d="M100.458 28.2005H101.591V28.7693C101.591 28.959 101.564 29.1215 101.564 29.1215H101.591C101.775 28.7152 102.302 28.0921 103.25 28.0921C104.304 28.0921 104.883 28.661 104.883 29.9342V33.0495H103.724V30.178C103.724 29.582 103.566 29.2028 102.987 29.2028C102.17 29.2028 101.643 29.9071 101.643 30.774V33.0495H100.484V28.2005H100.458Z" fill="white"/>
<path d="M109.071 28.0921C109.703 28.0921 110.414 28.3088 110.888 28.8235L110.362 29.6362C110.072 29.3382 109.598 29.1215 109.15 29.1215C108.281 29.1215 107.728 29.7988 107.728 30.6115C107.728 31.4241 108.281 32.1285 109.203 32.1285C109.703 32.1285 110.23 31.8576 110.572 31.5054L111.02 32.3723C110.572 32.8599 109.835 33.1579 109.097 33.1579C107.543 33.1579 106.542 32.0201 106.542 30.6385C106.516 29.2299 107.491 28.0921 109.071 28.0921Z" fill="white"/>
<path d="M112.89 33.9977C113.206 33.9977 113.522 33.8081 113.707 33.3746L113.891 32.9412L111.916 28.1734H113.233L114.207 30.9636C114.286 31.2075 114.392 31.6138 114.392 31.6138H114.418C114.418 31.6138 114.497 31.2345 114.576 30.9907L115.498 28.1734H116.762L114.681 33.7268C114.365 34.6208 113.68 35 112.996 35C112.442 35 112.021 34.6749 112.021 34.6749L112.416 33.781C112.363 33.8081 112.627 33.9977 112.89 33.9977Z" fill="white"/>
<path d="M16.9362 10.2128H24.4429V34.8645H16.9362V26.3042C17.2259 26.1416 17.621 25.9249 18.0424 25.5456C18.3321 25.2747 18.7536 24.9226 19.096 24.2995C19.254 24.0286 19.5701 23.4055 19.5701 22.5658C19.5701 21.4551 19.017 20.6695 18.8326 20.3986C18.5165 19.9651 18.1478 19.6672 17.9371 19.4775C17.5683 19.1795 17.2259 18.9628 16.9625 18.8274C16.9362 15.9829 16.9362 13.0843 16.9362 10.2128Z" fill="white"/>
<path d="M22.4147 0H20.0178V2.46517H22.4147V0Z" fill="white"/>
<path d="M23.8371 2.84442H21.4402V5.58049H23.8371V2.84442Z" fill="white"/>
<path d="M16.0406 10.3754V17.0666C15.7509 16.9853 11.3522 15.8746 8.69196 18.0147C7.69107 18.8274 7.11161 19.8568 7.05893 19.911C6.84821 20.2903 6.0317 21.7802 6.37411 23.5681C6.90089 26.3855 9.85089 27.6045 10.4304 27.8483C10.6674 27.9296 11.8263 28.4172 13.4067 28.3901C14.4076 28.3901 15.4875 28.0921 16.067 27.9025C16.067 30.178 16.067 32.3181 16.067 34.5937C14.3022 34.8646 10.325 35.2167 6.58482 33.2121C4.58303 32.1285 3.26607 30.6657 3.10804 30.476C1.76473 28.959 1.10625 27.5232 0.948214 27.144C0.579464 26.2771 0 24.6246 0 22.5387C0 18.692 1.97545 15.983 2.55491 15.2245C5.10982 11.8383 8.56027 10.8901 9.82455 10.5379C12.4585 9.8607 14.75 10.1316 16.0406 10.3754Z" fill="white"/>
<path d="M18.6482 3.22374H21.0451V5.95981H24.2058V0.487671H26.6027V33.158H25.3647V9.29185H18.6482V3.22374Z" fill="white"/>
</svg>
