<svg width="9" height="8" viewBox="0 0 9 8" fill="none" xmlns="http://www.w3.org/2000/svg">
<path d="M0.103846 4.35C0.0346154 4.28 0 4.175 0 4.105C0 4.035 0.0346154 3.93 0.103846 3.86L0.588462 3.37C0.726923 3.23 0.934615 3.23 1.07308 3.37L1.10769 3.405L3.01154 5.47C3.08077 5.54 3.18462 5.54 3.25385 5.47L7.89231 0.605H7.92692V0.605C8.06538 0.465 8.27308 0.465 8.41154 0.605L8.89615 1.095C9.03462 1.235 9.03462 1.445 8.89615 1.585L3.35769 7.395C3.28846 7.465 3.21923 7.5 3.11538 7.5C3.01154 7.5 2.94231 7.465 2.87308 7.395L0.173077 4.455L0.103846 4.35V4.35Z" fill="#E01F35"/>
</svg>
