<svg width="160" height="44" viewBox="0 0 160 44" fill="none" xmlns="http://www.w3.org/2000/svg">
<g clip-path="url(#clip0_1153_1307)">
<path d="M40.7907 20.4C40.7907 31.6671 31.6599 40.8 20.3954 40.8C9.13089 40.8 3.05176e-05 31.6671 3.05176e-05 20.4C3.05176e-05 9.13294 9.13089 0 20.3954 0C31.6599 0.00931932 40.7907 9.13294 40.7907 20.4Z" fill="white"/>
<path d="M20.3955 0.00915527C9.41979 0.00915527 0.465963 8.68544 0.0187378 19.5518C3.13068 17.9209 5.96311 19.0858 7.35137 20.3626C9.09369 21.9655 9.27072 24.258 9.06574 26.3735C12.8858 25.861 14.0411 30.1572 13.9573 31.3128C13.92 31.7787 13.8827 31.8253 13.7802 31.8906C13.7337 31.9185 13.5566 31.9465 13.4169 31.8906C13.4076 31.6669 13.3517 31.4339 13.2398 31.1916C13.1467 31.0052 13.0535 30.8188 12.9603 30.6418C12.5876 29.7937 11.8516 28.7779 10.8453 28.3585C10.5565 28.2001 10.2397 28.0696 9.89497 27.9764C9.23345 27.7994 8.51602 27.9578 7.86382 28.1255C7.56567 28.2001 7.26752 28.2933 6.96937 28.3678C6.84825 28.3958 6.71781 28.4144 6.58736 28.4424C6.38239 28.2001 6.22399 27.9112 6.26126 27.6596C6.56873 27.2682 6.92278 26.9699 7.26752 26.7649C7.4725 25.3204 6.99732 21.8257 3.32634 21.8536C2.25487 21.863 1.10885 22.5153 0.288937 23.7455C1.88218 33.4189 10.2863 40.7998 20.4048 40.7998C31.6693 40.7998 40.8001 31.6669 40.8001 20.3998C40.7908 9.13277 31.66 0.00915527 20.3955 0.00915527ZM17.0319 21.4063C16.9015 22.1053 16.6406 24.1555 16.6034 25.4602C16.5661 26.9699 16.6593 28.8897 15.9139 28.1162C15.448 27.6316 15.0287 26.6624 14.889 25.6559C14.7492 24.6494 14.2554 21.0615 15.1033 18.1725C15.2896 17.5388 15.8952 16.933 17.2369 16.8212C20.4793 16.551 22.8925 16.5416 25.7528 17.0728C26.3212 17.1753 27.6722 17.4549 28.3058 17.837C28.4828 17.9488 28.4176 18.098 28.1753 18.1725C25.7808 18.8621 22.5757 18.4987 19.6687 18.9274C18.3457 19.1324 17.3487 19.6916 17.0319 21.4063ZM24.6348 28.7593C24.5137 29.4582 24.1037 30.1106 23.5074 30.5393C23.0695 30.8468 22.557 31.0518 21.9701 31.0705H21.7185C20.8893 31.0332 20.1439 30.6697 19.6128 29.9894C19.1935 29.4489 19.0258 28.927 18.9513 28.2747C18.914 27.6037 19.1283 27.0259 19.4824 26.5413C19.6594 26.2896 19.9016 26.0753 20.1439 25.8982C20.2277 25.8423 20.3396 25.7771 20.4141 25.7398C20.6377 25.6093 20.8986 25.5161 21.1501 25.4602C21.3365 25.4229 21.5228 25.395 21.7278 25.395C22.3893 25.3857 22.9856 25.5721 23.4794 25.9355C23.7217 26.1033 23.9453 26.3269 24.1223 26.5692C24.2155 26.6997 24.3087 26.8395 24.3739 26.9979C24.5137 27.2682 24.5975 27.5664 24.6441 27.8926C24.7093 28.1721 24.6907 28.489 24.6348 28.7593ZM33.0482 28.9922C33.0296 29.16 32.983 29.3277 32.9178 29.4955C32.8246 29.7657 32.6662 30.0174 32.4705 30.2224C32.0606 30.679 31.5295 30.9679 30.9239 31.0518C30.8494 31.0611 30.7655 31.0611 30.6816 31.0611C30.6071 31.0705 30.5233 31.0611 30.4487 31.0611C30.4021 31.0611 30.3462 31.0518 30.2903 31.0518C30.2624 31.0425 30.2251 31.0332 30.1878 31.0332C30.1692 31.0239 30.1412 31.0239 30.1226 31.0145C30.0294 31.0052 29.9549 30.9773 29.8804 30.9586C29.6195 30.8841 29.3959 30.7722 29.1909 30.6231C29.0232 30.502 28.8462 30.3435 28.7064 30.1758C28.4362 29.8589 28.2499 29.4768 28.1846 29.0575C28.1567 28.9456 28.1474 28.8338 28.1474 28.7127C28.1194 28.2094 28.2592 27.7528 28.4828 27.3614C28.753 26.9047 29.1909 26.5599 29.6661 26.3922C29.7499 26.3549 29.8431 26.3269 29.9363 26.3176C30.3742 26.2337 30.9984 26.2896 31.4829 26.4667C31.7624 26.5506 32.014 26.7183 32.2469 26.914C32.8432 27.3986 33.1693 28.1442 33.0482 28.9922ZM35.7688 28.9456C35.5732 28.7872 35.5452 26.8022 35.3775 25.7678C35.1073 24.081 31.3432 25.0688 30.2065 23.2609C29.9176 22.8042 29.3679 21.0615 29.5077 19.7568C29.5356 19.5145 29.5822 19.4213 29.7313 19.4213C30.1785 19.4213 31.0543 21.3597 31.7718 22.1798C32.0047 22.4501 32.3028 22.5246 32.5078 22.5805C33.8495 22.944 34.8185 23.1397 35.8247 23.4752C36.8776 23.8293 37.036 24.4444 37.1105 24.7147C37.2316 25.1434 37.1944 26.9327 36.3558 28.5915C36.1788 28.9177 35.9272 29.0761 35.7688 28.9456Z" fill="#F50003"/>
<path fill-rule="evenodd" clip-rule="evenodd" d="M92.6129 7.47998C98.1988 7.47998 101.502 11.0366 101.502 16.83V23.0816C101.502 28.3616 98.7134 32.5783 92.6129 32.5783C90.1988 32.5783 88.3836 31.2491 87.2795 30.0117V43.2758H81.5906V7.73665H87.2795V9.48748C88.6363 8.28665 90.3205 7.47998 92.6129 7.47998ZM91.593 12.2833C88.8327 12.2833 87.2982 14.3733 87.2702 16.72V23.1916C87.2702 25.6575 88.7672 27.775 91.6023 27.775C93.4269 27.775 95.8784 27.1608 95.8784 23.1916V16.8666C95.8784 13.97 94.6058 12.2833 91.593 12.2833Z" fill="#171717"/>
<path fill-rule="evenodd" clip-rule="evenodd" d="M116.444 7.47998H115.443C108.454 7.47998 105.909 11.8433 105.909 16.83V23.2741C105.909 28.3525 108.547 32.5691 115.462 32.5691H116.435C123.359 32.5691 125.988 28.3433 125.988 23.2741V16.83C125.979 11.8433 123.425 7.47998 116.444 7.47998ZM120.356 23.2741C120.356 27.335 118.007 27.775 116.126 27.775H115.761C112.721 27.775 111.532 26.29 111.532 23.2741V16.8116C111.532 12.8883 113.74 12.2741 115.761 12.2741H116.126C118.877 12.2741 120.356 13.53 120.356 16.8116V23.2741Z" fill="#171717"/>
<path d="M52.8187 27.2067C54.1193 27.2067 54.8585 26.3358 55.0269 24.6033C55.3638 20.7442 55.7942 15.125 56.3275 7.755H73.9649V27.1975H76.669V37.4H70.8024V32.3217H57.3755V37.4H51.5088V27.2067H52.8187ZM60.2573 26.0517C60.1357 26.4642 60.0328 26.7483 59.9298 26.9133L59.7333 27.2067H68.145V12.87H61.3895C61.0246 17.9117 60.7252 21.89 60.4912 24.805C60.4538 25.2267 60.379 25.6483 60.2573 26.0517Z" fill="#171717"/>
<path d="M159.579 32.3125H153.881V20.9459L154.115 14.8592L147.892 32.3125H142.222L136.028 14.8592L136.262 20.9459V32.3125H130.564V7.73669H138.816L145.057 25.2359L151.345 7.73669H159.57V32.3125H159.579Z" fill="#171717"/>
</g>
<defs>
<clipPath id="clip0_1153_1307">
<rect width="160" height="44" fill="white"/>
</clipPath>
</defs>
</svg>
