<svg width="200" height="55" viewBox="0 0 200 55" fill="none" xmlns="http://www.w3.org/2000/svg">
<g clip-path="url(#clip0_1131_12181)">
<path d="M50.9884 25.5C50.9884 39.5838 39.5748 51 25.4942 51C11.4136 51 0 39.5838 0 25.5C0 11.4162 11.4136 0 25.4942 0C39.5748 0.0116492 50.9884 11.4162 50.9884 25.5Z" fill="white"/>
<path d="M25.4943 0.0114746C11.7748 0.0114746 0.582469 10.8568 0.0234375 24.4397C3.91337 22.4011 7.4539 23.8573 9.18923 25.4532C11.3671 27.4569 11.5884 30.3226 11.3322 32.9669C16.1073 32.3262 17.5514 37.6965 17.4466 39.141C17.4 39.7234 17.3534 39.7817 17.2253 39.8632C17.1671 39.8982 16.9458 39.9331 16.7711 39.8632C16.7595 39.5836 16.6896 39.2924 16.5498 38.9895C16.4334 38.7565 16.3169 38.5236 16.2004 38.3022C15.7346 37.2422 14.8145 35.9724 13.5567 35.4482C13.1956 35.2502 12.7996 35.0871 12.3687 34.9706C11.5418 34.7492 10.645 34.9473 9.82979 35.157C9.4571 35.2502 9.08442 35.3666 8.71173 35.4598C8.56032 35.4948 8.39727 35.5181 8.23422 35.553C7.978 35.2502 7.78001 34.889 7.82659 34.5745C8.21093 34.0852 8.65349 33.7125 9.08441 33.4562C9.34064 31.6506 8.74667 27.2821 4.15795 27.3171C2.8186 27.3287 1.38608 28.1442 0.361187 29.6819C2.35274 41.7737 12.8579 50.9998 25.506 50.9998C39.5866 50.9998 51.0002 39.5836 51.0002 25.4998C50.9885 11.416 39.575 0.0114746 25.4943 0.0114746ZM21.2899 26.7579C21.1269 27.6316 20.8008 30.1944 20.7542 31.8253C20.7076 33.7125 20.8241 36.1122 19.8924 35.1453C19.31 34.5396 18.7859 33.328 18.6113 32.0699C18.4366 30.8118 17.8193 26.3269 18.8791 22.7157C19.1121 21.9235 19.8691 21.1663 21.5462 21.0265C25.5991 20.6887 28.6156 20.6771 32.1911 21.3411C32.9015 21.4692 34.5902 21.8187 35.3822 22.2963C35.6035 22.4361 35.522 22.6225 35.2192 22.7157C32.226 23.5777 28.2196 23.1234 24.5859 23.6593C22.9321 23.9155 21.6859 24.6145 21.2899 26.7579ZM30.7935 35.9491C30.6421 36.8228 30.1296 37.6382 29.3843 38.1741C28.8369 38.5585 28.1963 38.8148 27.4626 38.8381H27.1481C26.1116 38.7915 25.1799 38.3372 24.516 37.4868C23.9919 36.8111 23.7823 36.1588 23.6891 35.3433C23.6425 34.5046 23.9104 33.7824 24.353 33.1766C24.5743 32.8621 24.8771 32.5942 25.1799 32.3728C25.2847 32.3029 25.4245 32.2214 25.5176 32.1748C25.7971 32.0117 26.1232 31.8952 26.4377 31.8253C26.6706 31.7787 26.9036 31.7438 27.1598 31.7438C27.9867 31.7321 28.7321 31.9651 29.3493 32.4194C29.6521 32.6291 29.9316 32.9087 30.1529 33.2116C30.2694 33.3746 30.3859 33.5494 30.4674 33.7474C30.6421 34.0852 30.7469 34.458 30.8051 34.8657C30.8867 35.2152 30.8634 35.6113 30.7935 35.9491ZM41.3103 36.2403C41.287 36.45 41.2287 36.6597 41.1472 36.8694C41.0308 37.2072 40.8328 37.5217 40.5882 37.778C40.0758 38.3488 39.4119 38.71 38.6549 38.8148C38.5617 38.8264 38.4569 38.8264 38.3521 38.8264C38.2589 38.8381 38.1541 38.8264 38.0609 38.8264C38.0027 38.8264 37.9328 38.8148 37.8629 38.8148C37.828 38.8031 37.7814 38.7915 37.7348 38.7915C37.7115 38.7799 37.6766 38.7798 37.6533 38.7682C37.5368 38.7565 37.4436 38.7216 37.3505 38.6983C37.0244 38.6051 36.7449 38.4653 36.4886 38.2789C36.279 38.1275 36.0577 37.9295 35.883 37.7198C35.5453 37.3237 35.3123 36.8461 35.2308 36.3219C35.1959 36.1821 35.1842 36.0423 35.1842 35.8909C35.1493 35.2618 35.324 34.691 35.6035 34.2017C35.9412 33.6309 36.4886 33.1999 37.0826 32.9902C37.1874 32.9436 37.3039 32.9087 37.4203 32.897C37.9677 32.7922 38.748 32.8621 39.3537 33.0834C39.7031 33.1883 40.0175 33.3979 40.3087 33.6426C41.0541 34.2483 41.4617 35.1803 41.3103 36.2403ZM44.7111 36.1821C44.4665 35.9841 44.4315 33.5028 44.2219 32.2097C43.8842 30.1012 39.179 31.336 37.7581 29.0761C37.3971 28.5053 36.7099 26.3269 36.8846 24.696C36.9195 24.3931 36.9778 24.2767 37.1641 24.2767C37.7232 24.2767 38.8179 26.6997 39.7147 27.7248C40.0059 28.0626 40.3786 28.1558 40.6348 28.2257C42.3119 28.68 43.5231 28.9247 44.7809 29.344C46.097 29.7867 46.295 30.5555 46.3881 30.8934C46.5396 31.4292 46.493 33.6659 45.4448 35.7394C45.2235 36.1471 44.909 36.3452 44.7111 36.1821Z" fill="#F50003"/>
<path fill-rule="evenodd" clip-rule="evenodd" d="M115.766 9.34998C122.749 9.34998 126.877 13.7958 126.877 21.0375V28.8521C126.877 35.4521 123.392 40.7229 115.766 40.7229C112.749 40.7229 110.48 39.0614 109.099 37.5146V54.0948H101.988V9.67081H109.099V11.8594C110.795 10.3583 112.901 9.34998 115.766 9.34998ZM114.491 15.3541C111.041 15.3541 109.123 17.9666 109.088 20.9V28.9896C109.088 32.0718 110.959 34.7187 114.503 34.7187C116.784 34.7187 119.848 33.951 119.848 28.9896V21.0833C119.848 17.4625 118.257 15.3541 114.491 15.3541Z" fill="#171717"/>
<path fill-rule="evenodd" clip-rule="evenodd" d="M145.556 9.34998H144.304C135.567 9.34998 132.386 14.8041 132.386 21.0375V29.0927C132.386 35.4406 135.684 40.7114 144.327 40.7114H145.544C154.199 40.7114 157.485 35.4291 157.485 29.0927V21.0375C157.474 14.8041 154.281 9.34998 145.556 9.34998ZM150.444 29.0927C150.444 34.1687 147.509 34.7187 145.158 34.7187H144.702C140.901 34.7187 139.415 32.8625 139.415 29.0927V21.0146C139.415 16.1104 142.175 15.3427 144.702 15.3427H145.158C148.597 15.3427 150.444 16.9125 150.444 21.0146V29.0927Z" fill="#171717"/>
<path d="M66.0234 34.0083C67.6491 34.0083 68.5731 32.9198 68.7836 30.7541C69.2047 25.9302 69.7427 18.9062 70.4094 9.69373H92.4562V33.9968H95.8363V46.75H88.5029V40.4021H71.7193V46.75H64.386V34.0083H66.0234ZM75.3217 32.5646C75.1696 33.0802 75.041 33.4354 74.9123 33.6416L74.6667 34.0083H85.1813V16.0875H76.7369C76.2807 22.3896 75.9065 27.3625 75.6141 31.0062C75.5673 31.5333 75.4737 32.0604 75.3217 32.5646Z" fill="#171717"/>
<path d="M199.474 40.3906H192.351V26.1822L192.643 18.5739L184.866 40.3906H177.778L170.035 18.5739L170.328 26.1822V40.3906H163.205V9.67078H173.521L181.322 31.5447L189.181 9.67078H199.462V40.3906H199.474Z" fill="#171717"/>
</g>
<defs>
<clipPath id="clip0_1131_12181">
<rect width="200" height="55" fill="white"/>
</clipPath>
</defs>
</svg>
