<svg width="60" height="60" viewBox="0 0 60 60" fill="none" xmlns="http://www.w3.org/2000/svg">
<circle cx="30" cy="30" r="30" fill="#FDE2E2"/>
<path d="M30 15C21.7095 15 15 21.7088 15 30C15 38.2904 21.7088 45 30 45C38.2905 45 45 38.2912 45 30C45 21.7096 38.2912 15 30 15ZM30 42.907C22.8831 42.907 17.093 37.117 17.093 30C17.093 22.883 22.8831 17.093 30 17.093C37.1169 17.093 42.907 22.883 42.907 30C42.907 37.117 37.1169 42.907 30 42.907Z" fill="#E01F35" stroke="#E01F35" stroke-width="0.8"/>
<path fill-rule="evenodd" clip-rule="evenodd" d="M36.3742 35.1226C36.7198 35.4683 36.7198 36.0286 36.3742 36.3742V36.3742C36.0286 36.7198 35.4683 36.7198 35.1226 36.3742L30.5 31.7516L25.8774 36.3742C25.5317 36.7198 24.9714 36.7198 24.6258 36.3742V36.3742C24.2802 36.0286 24.2802 35.4683 24.6258 35.1226L29.2484 30.5L24.6258 25.8774C24.2802 25.5317 24.2802 24.9714 24.6258 24.6258V24.6258C24.9714 24.2802 25.5317 24.2802 25.8774 24.6258L30.5 29.2484L35.1226 24.6258C35.4683 24.2802 36.0286 24.2802 36.3742 24.6258V24.6258C36.7198 24.9714 36.7198 25.5317 36.3742 25.8774L31.7516 30.5L36.3742 35.1226Z" fill="#E01F35" stroke="#E01F35"/>
</svg>
