<svg width="20" height="19" viewBox="0 0 20 19" fill="none" xmlns="http://www.w3.org/2000/svg">
<g clip-path="url(#clip0_1198_1594)">
<path d="M17.3528 0.75H2.64713C2.27381 0.750294 1.9086 0.858941 1.59583 1.06276C1.28305 1.26657 1.03616 1.55679 0.88511 1.89819C0.734063 2.23959 0.685359 2.6175 0.744906 2.98604C0.804454 3.35458 0.969694 3.69792 1.22057 3.97438L7.5937 10.9834V17.5938C7.59375 17.723 7.63022 17.8496 7.69893 17.959C7.76763 18.0684 7.86578 18.1563 7.98213 18.2125C8.07512 18.2584 8.17752 18.2819 8.2812 18.2813C8.43745 18.2811 8.589 18.2278 8.71088 18.13L9.99995 17.0988L12.1484 15.38C12.2288 15.3156 12.2937 15.234 12.3383 15.1412C12.3829 15.0484 12.4061 14.9467 12.4062 14.8438V10.9834L18.7793 3.97438C19.0302 3.69792 19.1954 3.35458 19.255 2.98604C19.3145 2.6175 19.2658 2.23959 19.1148 1.89819C18.9637 1.55679 18.7168 1.26657 18.4041 1.06276C18.0913 0.858941 17.7261 0.750294 17.3528 0.75Z" fill="white"/>
</g>
<defs>
<clipPath id="clip0_1198_1594">
<rect width="20" height="19" fill="white"/>
</clipPath>
</defs>
</svg>
