<svg width="60" height="60" viewBox="0 0 60 60" fill="none" xmlns="http://www.w3.org/2000/svg">
<circle cx="30" cy="30" r="30" fill="#C7E6CD"/>
<path d="M30 15C21.7095 15 15 21.7088 15 30C15 38.2904 21.7088 45 30 45C38.2905 45 45 38.2913 45 30C45 21.7096 38.2913 15 30 15ZM30 42.907C22.8831 42.907 17.093 37.117 17.093 30C17.093 22.883 22.8831 17.093 30 17.093C37.1169 17.093 42.907 22.883 42.907 30C42.907 37.117 37.1169 42.907 30 42.907Z" fill="#2FA346" stroke="#2FA346" stroke-width="0.8"/>
<path d="M29.8809 27.5038C29.0622 27.5038 28.48 27.879 28.48 28.4318V35.9545C28.48 36.4284 29.0622 36.9022 29.8809 36.9022C30.6633 36.9022 31.3 36.4284 31.3 35.9545V28.4317C31.3 27.879 30.6633 27.5038 29.8809 27.5038Z" fill="#2FA346" stroke="#2FA346" stroke-width="0.8"/>
<path d="M29.7999 22.8638C29.0041 22.8638 28.3813 23.5153 28.3813 24.2656C28.3813 25.016 29.0042 25.6873 29.7999 25.6873C30.5785 25.6873 31.2013 25.016 31.2013 24.2656C31.2013 23.5153 30.5784 22.8638 29.7999 22.8638Z" fill="#2FA346" stroke="#2FA346" stroke-width="0.8"/>
</svg>
