<svg width="78" height="42" viewBox="0 0 78 42" fill="none" xmlns="http://www.w3.org/2000/svg">
<g clip-path="url(#clip0_1135_15556)">
<path d="M56.6663 0.0800781H44.3583V16.9677H56.6663V0.0800781Z" fill="#2D245B"/>
<path d="M14.3731 2.08105H17.2643L14.0427 12.7259H18.0903L21.3945 2.08105H24.2856L20.8988 12.7259H24.9464L28.4158 2.08105H31.307L27.0116 15.127H10.4907L14.3731 2.08105Z" fill="#2D245B"/>
<path d="M31.3069 2.08098L27.0115 15.1269H10.4907L14.373 2.08098H17.2642L14.0426 12.7258H18.0902L21.3944 2.08098H24.2855L20.8988 12.7258H24.9464L28.4157 2.08098H31.3069ZM34.0328 0.0800781H31.3069H28.4157H27.0115H24.2855H21.3944H19.9075H17.2642H14.373H12.8862L12.4732 1.44069L8.59076 14.5666L7.84732 17.0478H10.4907H27.0941H28.581L28.994 15.6871L33.2894 2.64124L34.0328 0.0800781Z" fill="#2D245B"/>
<path d="M33.3721 2.08101H36.1806L34.0329 8.56395L32.8765 11.2051H32.9591L35.1068 8.72402L41.8803 2.00098H44.5237L39.9804 15.0469H37.2545L39.4848 8.72402L40.7239 6.08283H40.6413L38.4935 8.56395L31.8852 15.1269H29.3245L33.3721 2.08101Z" fill="#2D245B"/>
<path d="M44.3584 2.08094L39.8152 15.1268H37.0892L39.3195 8.80399L40.5586 6.16279H40.476L38.3283 8.64391L31.7199 15.2069H29.1592L33.372 2.08094H36.1806L34.0329 8.56388L32.8764 11.2051H32.959L35.1067 8.72395L41.8803 2.00091H44.3584M47.1669 0.0800365H44.3584H41.715H40.889L40.3108 0.64029L37.9153 2.96134L38.0805 2.56116L38.9065 0H36.1806H33.372H31.8852L31.4721 1.36062L27.1767 14.4065L26.3507 16.9677H29.0766H31.6373H32.4634L33.0416 16.4074L35.1893 14.2465L35.1067 14.4065L34.1981 16.9677H37.0066H39.7325H41.1368L41.6324 15.6871L46.1757 2.6412L47.1669 0.0800365Z" fill="#2D245B"/>
<path d="M51.6276 9.76449H46.5061L44.6062 15.0469H41.7977L46.4235 2.00098H49.3146L47.4148 7.28337H52.5362L54.5187 2.00098H57.4098L52.5362 15.0469H49.7277L51.6276 9.76449Z" fill="#2D245B"/>
<path d="M57.3272 2.08098L52.4536 15.1269H49.6451L51.6276 9.8445H46.5061L44.6062 15.1269H41.7977L46.4235 2.08098H49.3146L47.4148 7.36338H52.5362L54.5187 2.08098H57.3272ZM60.2184 0.0800781H57.3272H54.4361H53.0318L52.5362 1.36066L51.0493 5.36247H50.1407L51.1319 2.64124L52.0406 0.0800781H49.232H46.3409H44.9366L44.441 1.36066L39.8152 14.4066L38.9065 16.9677H41.7151H44.5236H45.9279L46.4235 15.6871L47.9104 11.6853H48.819L47.8278 14.4066L46.8365 16.9677H49.6451H52.4536H53.8579L54.3535 15.6871L59.2271 2.64124L60.2184 0.0800781Z" fill="#2D245B"/>
<path d="M59.3924 2.08105H62.2836L60.4663 6.88323H62.9444C64.3487 6.88323 65.3399 7.20337 66.0007 7.76363C66.6616 8.40392 66.8268 9.20428 66.6616 10.3248C66.4964 11.0451 66.2486 11.6854 65.9181 12.3257C65.5051 12.8859 65.0921 13.3662 64.5139 13.8464C63.9356 14.2466 63.3574 14.5667 62.6966 14.8068C62.0357 15.0469 61.2923 15.127 60.4663 15.127H54.5188L59.3924 2.08105ZM61.2097 12.7259C61.6227 12.7259 62.0357 12.6458 62.4488 12.4057C62.7792 12.1656 63.1096 11.8455 63.2748 11.3653C63.3574 11.1251 63.44 10.885 63.5226 10.6449C63.6052 10.4048 63.6878 10.2448 63.6878 10.1647C63.7704 9.84457 63.6878 9.6845 63.5226 9.52442C63.3574 9.36435 63.1096 9.28432 62.614 9.28432H59.475L58.1534 12.7259H61.2097ZM71.783 2.08105H74.6742L69.3875 15.127H66.579L71.783 2.08105Z" fill="#2D245B"/>
<path d="M74.6741 2.08094L69.3875 15.1269H66.5789L71.783 2.08094H74.6741ZM62.2835 2.08094L60.4662 6.88312H62.9444C64.3486 6.88312 65.3399 7.20326 66.0007 7.76352C66.6615 8.40381 66.8267 9.20417 66.6615 10.3247C66.4963 11.045 66.2485 11.6853 65.9181 12.3256C65.5051 12.8858 65.0921 13.3661 64.5138 13.8463C63.9356 14.2465 63.3574 14.5666 62.6965 14.8067C62.0357 15.0468 61.2923 15.1269 60.4662 15.1269H54.5187L59.475 2.08094H62.2835ZM58.1533 12.7258H61.2097C61.6227 12.7258 62.0357 12.6457 62.4487 12.4056C62.7791 12.1655 63.1096 11.8454 63.2748 11.3651C63.3574 11.125 63.44 10.8849 63.5226 10.6448C63.6052 10.4047 63.6878 10.2446 63.6878 10.1646C63.7704 9.84446 63.6878 9.68439 63.5226 9.52431C63.3574 9.36424 63.1096 9.2842 62.6139 9.2842H59.475L58.1533 12.7258ZM77.6479 0.0800366H74.6741H71.783H70.3787L69.8831 1.28058L67.7354 6.72304C67.6528 6.56297 67.4876 6.4029 67.405 6.32286C66.4137 5.44246 65.0921 4.88221 63.3574 4.88221L64.1834 2.6412L65.1747 0H62.2835H59.3924H57.9881L57.4925 1.28058L52.5362 14.3265L51.545 16.9677H54.4361H60.3836C61.3749 16.9677 62.2835 16.8076 63.1922 16.5675C63.44 16.4875 63.6878 16.4074 63.853 16.3274L63.6052 17.0477H66.4963H69.3049H70.6265L71.1222 15.8472L76.4088 2.80127L77.6479 0.0800366Z" fill="#2D245B"/>
<path d="M14.3731 2.08105H17.2642L14.0427 12.7259H18.0903L21.3944 2.08105H24.2856L20.8988 12.7259H24.9464L28.4158 2.08105H31.3069L27.0115 15.127H10.4907L14.3731 2.08105Z" fill="white"/>
<path d="M33.372 2.08101H36.1806L34.0329 8.56395L32.8764 11.2051H32.959L35.1067 8.72402L41.8803 2.00098H44.5236L39.9804 15.0469H37.2544L39.4847 8.72402L40.7238 6.08283H40.6412L38.4935 8.56395L31.8852 15.1269H29.3244L33.372 2.08101Z" fill="white"/>
<path d="M51.6277 9.76449H46.5062L44.6063 15.0469H41.7978L46.4236 2.00098H49.3147L47.4148 7.28337H52.5363L54.5188 2.00098H57.4099L52.5363 15.0469H49.7278L51.6277 9.76449Z" fill="white"/>
<path d="M59.3924 2.08105H62.2835L60.4662 6.88323H62.9443C64.3486 6.88323 65.3398 7.20337 66.0007 7.76363C66.6615 8.40392 66.8267 9.20428 66.6615 10.3248C66.4963 11.0451 66.2485 11.6854 65.9181 12.3257C65.5051 12.8859 65.092 13.3662 64.5138 13.8464C63.9356 14.2466 63.3573 14.5667 62.6965 14.8068C62.0357 15.0469 61.2922 15.127 60.4662 15.127H54.5187L59.3924 2.08105ZM61.2096 12.7259C61.6227 12.7259 62.0357 12.6458 62.4487 12.4057C62.7791 12.1656 63.1095 11.8455 63.2747 11.3653C63.3573 11.1251 63.44 10.885 63.5226 10.6449C63.6052 10.4048 63.6878 10.2448 63.6878 10.1647C63.7704 9.84457 63.6878 9.6845 63.5226 9.52442C63.3573 9.36435 63.1095 9.28432 62.6139 9.28432H59.475L58.1533 12.7259H61.2096ZM71.783 2.08105H74.6741L69.3874 15.127H66.5789L71.783 2.08105Z" fill="white"/>
<path d="M43.1193 27.9326H30.3157V34.8157H43.1193V27.9326Z" fill="#E01F35"/>
<path d="M3.96498 35.0557H5.45186C5.69967 34.8957 5.94748 34.6556 6.19529 34.4154C6.4431 34.1753 6.69092 33.7752 6.93873 33.375C7.18654 32.9748 7.43436 32.4946 7.68217 31.9343C7.92998 31.3741 8.17779 30.7338 8.4256 29.9334L9.66467 25.8516H18.5033L15.447 35.0557H17.4295L15.9426 39.4577H13.5471L14.2905 37.1367H5.86488L5.12144 39.4577H2.72592L3.96498 35.0557ZM12.8036 35.0557L15.1165 27.9325H11.482L10.9037 29.8534C10.6559 30.6537 10.4081 31.3741 10.1603 31.9343C9.91248 32.4946 9.74727 32.9748 9.49946 33.375C9.33425 33.7752 9.08644 34.0953 8.92123 34.3354C8.75602 34.5755 8.50821 34.8156 8.343 35.0557V35.1358H12.8036V35.0557Z" fill="white"/>
<path d="M18.5033 25.7717L15.447 34.9759H17.4295L15.9426 39.3779H13.5471L14.2905 37.0568H5.86489L5.12146 39.3779H2.72594L4.0476 34.9759H5.53448C5.78229 34.8158 6.0301 34.5757 6.27792 34.3356C6.52573 34.0955 6.77354 33.6953 7.02135 33.2951C7.26916 32.8949 7.51698 32.4147 7.76479 31.8545C8.0126 31.2942 8.26042 30.6539 8.50823 29.8535L9.74729 25.7717H18.5033ZM15.1166 27.9327H11.482L10.9037 29.8535C10.6559 30.6539 10.4081 31.3742 10.1603 31.9345C9.9125 32.4947 9.74729 32.975 9.49947 33.3751C9.33427 33.7753 9.08646 34.0955 8.92125 34.3356C8.75604 34.5757 8.50823 34.8158 8.34302 35.0559V35.1359H12.8862L15.1166 27.9327ZM21.2293 23.8508H18.5033H9.58208H8.09521L7.68219 25.2114L6.44312 29.2933C6.19531 30.0136 6.0301 30.6539 5.78229 31.1341C5.61708 31.6143 5.36927 32.0145 5.20406 32.4147C5.03885 32.7349 4.87364 32.975 4.70844 33.135H3.965H2.47812L2.0651 34.4956L0.743438 38.8176L0 41.2987H2.64333H5.03885H6.52573L6.93875 39.9381L7.26917 38.9777H11.5646L10.8211 41.2987H13.5471H15.9426H17.3469L17.7599 39.9381L19.3294 35.6162L20.1554 33.135H18.0903L20.3206 26.412L21.2293 23.8508Z" fill="#E01F35"/>
<path d="M21.3945 25.7717H23.9552L22.0554 31.3743L20.9815 33.6953H21.0641L22.964 31.5343L29.0767 25.7717H31.4722L27.5072 36.9768H24.9465L26.8464 31.4543L27.9202 29.1333H27.8376L25.9377 31.3743L19.9076 37.0568H17.5947L21.3945 25.7717Z" fill="white"/>
<path d="M31.3896 25.7717L27.4246 36.9768H24.8639L26.7638 31.4543L27.8376 29.1332H27.755L25.9377 31.3742L19.9076 37.0568H17.5947L21.3945 25.8517H23.9552L22.0553 31.4543L20.9815 33.6953H21.0641L22.964 31.5343L29.0767 25.7717H31.3896ZM34.1981 23.8508H31.3896H28.9941H28.168L27.6724 24.4111L26.0203 26.0118L26.7638 23.8508H24.0378H21.4771H20.0728L19.4946 25.2114L15.6948 36.4165L14.8688 38.8976H17.5947H19.9076H20.7337L21.3119 38.3374L22.7988 36.8967L22.1379 38.8976H24.8639H27.4246H28.8289L29.3245 37.6171L33.2895 26.412L34.1981 23.8508Z" fill="#E01F35"/>
<path d="M34.2807 37.217C33.6199 37.217 33.0416 37.137 32.4634 36.8968C31.9678 36.7368 31.5548 36.4166 31.1417 36.0164C30.8113 35.6163 30.5635 35.136 30.3983 34.5758C30.2331 34.0155 30.2331 33.3753 30.3157 32.5749C30.4809 31.6145 30.7287 30.654 31.1417 29.7736C31.5548 28.8932 32.133 28.1729 32.7938 27.5326C33.4547 26.8923 34.1981 26.4121 35.1067 26.0119C35.9328 25.6117 36.8414 25.4517 37.7501 25.4517C38.9065 25.4517 39.8152 25.6918 40.3934 26.172C41.0542 26.6522 41.4673 27.3725 41.6325 28.2529L39.1543 29.1333C39.1543 28.8932 39.0717 28.7331 38.9891 28.493C38.9065 28.333 38.8239 28.1729 38.6587 28.0128C38.4935 27.8527 38.3283 27.7727 38.0805 27.6927C37.8327 27.6126 37.5849 27.5326 37.2544 27.5326C36.4284 27.5326 35.685 27.7727 35.1067 28.333C34.5285 28.8932 34.0329 29.5335 33.7025 30.4139L33.0416 32.1747C32.959 32.3348 32.959 32.4949 32.8764 32.6549C32.8764 32.815 32.7938 32.895 32.7938 33.0551C32.6286 34.4157 33.2068 35.136 34.6111 35.136C35.3546 35.136 35.9328 34.976 36.3458 34.6558C36.8414 34.3357 37.2544 33.9355 37.5849 33.4553L39.65 34.3357C38.9065 35.2961 38.0805 36.0164 37.1718 36.4166C36.3458 36.9769 35.3546 37.217 34.2807 37.217Z" fill="white"/>
<path d="M37.9152 25.6118C39.0717 25.6118 39.9803 25.8519 40.5586 26.3321C41.2194 26.8123 41.6324 27.5327 41.7976 28.4131L39.3195 29.2935C39.3195 29.0533 39.2369 28.8933 39.1543 28.6532C39.0717 28.4931 38.9891 28.333 38.8239 28.173C38.6587 28.0129 38.4935 27.9328 38.2457 27.8528C37.9978 27.7728 37.75 27.6927 37.4196 27.6927C36.5936 27.6927 35.8501 27.9328 35.2719 28.4931C34.6937 29.0533 34.1981 29.6936 33.8676 30.574L33.2068 32.3348C33.1242 32.4949 33.1242 32.655 33.0416 32.8151C33.0416 32.9751 32.959 33.0552 32.959 33.2152C32.7938 34.5759 33.372 35.2962 34.7763 35.2962C35.5197 35.2962 36.098 35.1361 36.511 34.816C37.0066 34.4958 37.4196 34.0956 37.75 33.6154L39.8151 34.4958C39.0717 35.4562 38.2457 36.1766 37.337 36.5768C36.3458 37.057 35.3545 37.2971 34.2807 37.2971C33.6198 37.2971 33.0416 37.217 32.4634 36.9769C31.9677 36.8169 31.5547 36.4967 31.1417 36.0965C30.8113 35.6964 30.5635 35.2161 30.3983 34.6559C30.2331 34.0956 30.2331 33.4553 30.3157 32.655C30.4809 31.6945 30.7287 30.7341 31.1417 29.8537C31.5547 28.9733 32.133 28.253 32.7938 27.6127C33.4546 26.9724 34.1981 26.4922 35.1067 26.092C36.0979 25.7719 37.0066 25.6118 37.9152 25.6118ZM37.9152 23.6909C36.6762 23.6909 35.5197 23.931 34.4459 24.4112C33.372 24.8915 32.4634 25.5318 31.5547 26.3321C30.7287 27.1325 30.0679 28.0129 29.4896 29.1334C28.9114 30.1739 28.581 31.2944 28.4158 32.4949C28.2506 33.4553 28.3332 34.4158 28.4984 35.1361C28.7462 36.0165 29.0766 36.7368 29.6548 37.3771C30.2331 38.0174 30.8939 38.4176 31.7199 38.7377C32.4634 38.9778 33.2894 39.1379 34.1981 39.1379C35.6023 39.1379 36.924 38.8178 38.1631 38.2575C39.4021 37.6973 40.476 36.7368 41.3846 35.5363L42.7889 33.6154L40.5586 32.655L38.4935 31.7746L38.1631 31.6145L39.8977 30.9742L42.3759 30.0938L43.9453 29.5336L43.6149 27.9328C43.3671 26.5722 42.7063 25.5318 41.6324 24.7314C40.8064 24.0911 39.4847 23.6909 37.9152 23.6909ZM35.0241 33.2953V33.2152C35.0241 33.1352 35.0241 33.1352 35.1067 32.9751L35.7675 31.2143C35.9327 30.6541 36.2632 30.2539 36.5936 29.9337C36.8414 29.6936 37.0892 29.6136 37.4196 29.6136L37.75 31.3744L37.0892 31.1343L36.1806 32.4149C35.9327 32.735 35.7675 32.9751 35.4371 33.1352C35.3545 33.2152 35.1893 33.2953 35.0241 33.2953Z" fill="#E01F35"/>
<path d="M43.9453 25.7717H46.5886L44.8539 30.3338H46.6712L49.8928 26.8922C50.3058 26.4921 50.6362 26.1719 51.0493 26.0118C51.3797 25.8518 51.8753 25.7717 52.4535 25.7717H53.61L52.7839 27.8527H51.7927L49.5624 30.1737C49.232 30.4939 48.9015 30.734 48.6537 30.894C48.4059 31.0541 48.0755 31.1342 47.6625 31.2142V31.2942C47.9103 31.3743 48.0755 31.5343 48.2407 31.6944C48.4059 31.8545 48.4885 32.0946 48.5711 32.4147L49.0668 34.9759H50.1406L49.3146 36.9768H48.4059C48.0755 36.9768 47.8277 36.9768 47.6625 36.8968C47.4147 36.8167 47.2495 36.8167 47.1669 36.6567C47.0016 36.5766 46.919 36.4165 46.8364 36.2565C46.7538 36.0964 46.6712 35.8563 46.5886 35.6162L45.8452 32.4147H44.0279L42.2932 36.9768H39.7325L43.9453 25.7717Z" fill="white"/>
<path d="M53.61 25.7717L52.7839 27.8526H51.7927L49.5624 30.1737C49.232 30.4938 48.9015 30.7339 48.6537 30.894C48.4059 31.0541 48.0755 31.1341 47.6625 31.2142V31.2942C47.9103 31.3742 48.0755 31.5343 48.2407 31.6944C48.4059 31.8545 48.4885 32.0946 48.5711 32.4147L49.0667 34.9759H50.1406L49.3146 36.9768H48.4059C48.0755 36.9768 47.8277 36.9768 47.6625 36.8967C47.4147 36.8167 47.2495 36.8167 47.1668 36.6566C47.0016 36.5766 46.919 36.4165 46.8364 36.2564C46.7538 36.0964 46.6712 35.8563 46.5886 35.6162L45.8452 32.4147H44.0279L42.2932 36.9768H39.7325L44.0279 25.7717H46.5886L44.8539 30.3338H46.6712L49.8928 26.8922C50.3058 26.492 50.6362 26.1719 51.0492 26.0118C51.3797 25.8517 51.8753 25.7717 52.4535 25.7717H53.61ZM56.5011 23.8508H53.61H52.4535C51.5449 23.8508 50.8014 24.0109 50.1406 24.331C49.7276 24.5712 49.3146 24.8113 48.9841 25.1314L49.4798 23.8508H46.5886H43.9453H42.541L42.0454 25.1314L37.75 36.3365L36.7587 38.8976H39.5673H42.128H43.5323L44.0279 37.6171L44.5235 36.3365C44.6061 36.6566 44.6887 36.8967 44.7713 37.1368C45.0191 37.6171 45.3496 37.9372 45.68 38.2574C46.0104 38.4975 46.506 38.7376 47.0016 38.8176C47.3321 38.8976 47.7451 38.8976 48.1581 38.8976H49.0667H50.3884L50.884 37.6971L51.7101 35.6962L52.7839 33.055H50.7188L50.5536 32.0145C50.7188 31.8545 50.9666 31.6944 51.1318 31.4543L52.7839 29.7735H52.8665H54.1882L54.6838 28.573L55.5099 26.492L56.5011 23.8508Z" fill="#E01F35"/>
<path d="M55.0969 25.7717H57.6577L55.3448 31.3743L54.1057 33.6953H54.1883L56.2534 31.5343L62.6965 25.7717H65.092L60.3836 36.9768H57.8229L60.1358 31.4543L61.4575 29.2133H61.3749L59.3098 31.3743L52.9492 37.0568H50.6363L55.0969 25.7717Z" fill="white"/>
<path d="M65.1746 25.7717L60.4662 36.9768H57.9055L60.2184 31.4543L61.4574 29.2133H61.3748L59.3097 31.3742L52.9492 37.0568H50.6363L55.0969 25.8517H57.6577L55.3447 31.4543L54.1057 33.7753H54.1883L56.2534 31.6143L62.6965 25.8517H65.1746M68.1484 23.8508H65.1746H62.7791H62.0357L61.4574 24.4111L59.8054 25.8517L60.6314 23.8508H57.7403H55.1795H53.8579L53.3622 25.0514L48.9016 36.2564L47.8278 38.8976H50.7189H53.0318H53.7753L54.3535 38.4174L55.7578 37.1368L55.0143 38.8976H57.9881H60.5488H61.8705L62.3661 37.6971L67.0745 26.492L68.1484 23.8508Z" fill="#E01F35"/>
<path d="M3.96498 35.0557H5.45186C5.69967 34.8957 5.94748 34.6556 6.19529 34.4154C6.4431 34.1753 6.69092 33.7752 6.93873 33.375C7.18654 32.9748 7.43436 32.4946 7.68217 31.9343C7.92998 31.3741 8.17779 30.7338 8.4256 29.9334L9.66467 25.8516H18.5033L15.447 35.0557H17.4295L15.9426 39.4577H13.5471L14.2905 37.1367H5.86488L5.12144 39.4577H2.72592L3.96498 35.0557ZM12.8036 35.0557L15.1165 27.9325H11.482L10.9037 29.8534C10.6559 30.6537 10.4081 31.3741 10.1603 31.9343C9.91248 32.4946 9.74727 32.9748 9.49946 33.375C9.33425 33.7752 9.08644 34.0953 8.92123 34.3354C8.75602 34.5755 8.50821 34.8156 8.343 35.0557V35.1358H12.8036V35.0557Z" fill="white"/>
<path d="M18.5033 25.7718L15.447 34.976H17.4295L15.9426 39.378H13.5471L14.2905 37.0569H5.8649L5.12147 39.378H2.72595L4.04761 34.976H5.53449C5.7823 34.8159 6.03011 34.5758 6.27793 34.3357C6.52574 34.0956 6.77355 33.6954 7.02136 33.2952C7.26917 32.895 7.51699 32.4148 7.7648 31.8546C8.01261 31.2943 8.26043 30.654 8.50824 29.8536L9.7473 25.7718H18.5033ZM15.1166 27.9328H11.482L10.9038 29.8536C10.6559 30.654 10.4081 31.3743 10.1603 31.9346C9.91251 32.4948 9.7473 32.9751 9.49948 33.3752C9.33428 33.7754 9.08647 34.0956 8.92126 34.3357C8.75605 34.5758 8.50824 34.8159 8.34303 35.056V35.136H12.8863L15.1166 27.9328ZM19.5772 24.9714H18.5033H9.58209H9.00386L8.83865 25.5317L7.59959 29.6135C7.35178 30.3339 7.10397 30.9742 6.93876 31.5344C6.69095 32.0947 6.52574 32.4948 6.27793 32.895C6.11272 33.2152 5.8649 33.5353 5.6997 33.7754C5.53449 33.9355 5.45188 34.0956 5.28667 34.1756H4.13022H3.55199L3.22157 34.8159L1.89991 39.2179L1.56949 40.2584H2.64334H5.03886H5.61709L5.7823 39.6981L6.36053 37.9373H13.1341L12.721 39.2179L12.3906 40.2584H13.5471H15.9426H16.5208L16.686 39.6981L18.1729 35.2961L18.5033 34.2556H17.3469H16.4382L19.2468 26.0119L19.5772 24.9714ZM12.1428 28.7331H14.0427L12.2254 34.2556H9.99511C10.0777 34.0956 10.2429 33.8555 10.3255 33.6954C10.5733 33.2952 10.7385 32.735 10.9864 32.1747C11.2342 31.6144 11.482 30.8941 11.7298 30.0938L12.1428 28.7331Z" fill="#E01F35"/>
<path d="M21.3945 25.7717H23.9552L22.0553 31.3743L20.9815 33.6953H21.0641L22.964 31.5343L29.0767 25.7717H31.4722L27.5072 36.9768H24.9465L26.8464 31.4543L27.9202 29.1333H27.8376L25.9377 31.3743L19.9076 37.0568H17.5947L21.3945 25.7717Z" fill="white"/>
<path d="M31.3896 25.7718L27.4246 36.9769H24.8639L26.7638 31.4544L27.8376 29.1333H27.755L25.9377 31.3743L19.9076 37.0569H17.5947L21.3945 25.8518H23.9552L22.0553 31.4544L20.9815 33.6954H21.0641L22.964 31.5344L29.0767 25.7718H31.3896ZM32.5461 24.9714H31.3896H28.9941H28.6637L28.4159 25.2115L23.2944 30.0137L24.6161 26.0119L24.9465 24.9714H23.79H21.2293H20.6511L20.4859 25.5317L16.6861 36.7368L16.3557 37.7772H17.5121H19.825H20.1554L20.4033 37.5371L25.3595 32.895L24.0378 36.7368L23.7074 37.7772H24.8639H27.4246H28.0028L28.168 37.217L32.133 26.0119L32.5461 24.9714Z" fill="#E01F35"/>
<path d="M34.2806 37.2167C33.6198 37.2167 33.0416 37.1367 32.4633 36.8966C31.9677 36.7365 31.5547 36.4164 31.1417 36.0162C30.8113 35.616 30.5635 35.1358 30.3982 34.5756C30.233 34.0153 30.233 33.375 30.3156 32.5746C30.4809 31.6142 30.7287 30.6538 31.1417 29.7734C31.5547 28.893 32.1329 28.1727 32.7938 27.5324C33.4546 26.8921 34.198 26.4119 35.1067 26.0117C35.9327 25.6115 36.8414 25.4514 37.75 25.4514C38.9065 25.4514 39.8151 25.6915 40.3933 26.1717C41.0542 26.652 41.4672 27.3723 41.6324 28.2527L39.1543 29.1331C39.1543 28.893 39.0717 28.7329 38.9891 28.4928C38.9065 28.3327 38.8239 28.1726 38.6587 28.0126C38.4934 27.8525 38.3282 27.7725 38.0804 27.6924C37.8326 27.6124 37.5848 27.5324 37.2544 27.5324C36.4283 27.5324 35.6849 27.7725 35.1067 28.3327C34.5284 28.893 34.0328 29.5333 33.7024 30.4137L33.0416 32.1745C32.959 32.3345 32.959 32.4946 32.8764 32.6547C32.8764 32.8148 32.7938 32.8948 32.7938 33.0549C32.6286 34.4155 33.2068 35.1358 34.6111 35.1358C35.3545 35.1358 35.9327 34.9757 36.3457 34.6556C36.8414 34.3354 37.2544 33.9353 37.5848 33.455L39.6499 34.3354C38.9065 35.2959 38.0804 36.0162 37.1718 36.4164C36.3457 36.9766 35.3545 37.2167 34.2806 37.2167Z" fill="white"/>
<path d="M37.9153 25.6116C39.0717 25.6116 39.9804 25.8518 40.5586 26.332C41.2195 26.8122 41.6325 27.5325 41.7977 28.4129L39.3196 29.2933C39.3196 29.0532 39.237 28.8931 39.1544 28.653C39.0717 28.4929 38.9891 28.3329 38.8239 28.1728C38.6587 28.0127 38.4935 27.9327 38.2457 27.8527C37.9979 27.7726 37.7501 27.6926 37.4197 27.6926C36.5936 27.6926 35.8502 27.9327 35.272 28.4929C34.6937 29.0532 34.1981 29.6935 33.8677 30.5739L33.2069 32.3347C33.1243 32.4948 33.1242 32.6548 33.0416 32.8149C33.0416 32.975 32.959 33.055 32.959 33.2151C32.7938 34.5757 33.3721 35.296 34.7763 35.296C35.5198 35.296 36.098 35.136 36.511 34.8158C37.0066 34.4957 37.4197 34.0955 37.7501 33.6153L39.8152 34.4957C39.0717 35.4561 38.2457 36.1764 37.3371 36.5766C36.3458 37.0568 35.3546 37.2969 34.2807 37.2969C33.6199 37.2969 33.0416 37.2169 32.4634 36.9768C31.9678 36.8167 31.5548 36.4966 31.1418 36.0964C30.8113 35.6962 30.5635 35.216 30.3983 34.6557C30.2331 34.0955 30.2331 33.4552 30.3157 32.6548C30.4809 31.6944 30.7287 30.734 31.1418 29.8536C31.5548 28.9732 32.133 28.2528 32.7938 27.6125C33.4547 26.9723 34.1981 26.492 35.1067 26.0919C36.098 25.7717 37.0066 25.6116 37.9153 25.6116ZM37.9153 24.8113C36.8414 24.8113 35.8502 25.0514 34.9415 25.4516C34.0329 25.8518 33.1243 26.412 32.3808 27.1323C31.6374 27.8527 31.0591 28.653 30.5635 29.6135C30.0679 30.5739 29.7375 31.5343 29.6549 32.6548C29.5723 33.5352 29.5723 34.2556 29.7375 34.8958C29.9027 35.6162 30.2331 36.1764 30.6461 36.6566C31.0591 37.1369 31.6374 37.457 32.2982 37.6971C32.8764 37.9372 33.6199 38.0173 34.3633 38.0173C35.6024 38.0173 36.7588 37.7772 37.7501 37.2169C38.8239 36.7367 39.7326 35.9363 40.5586 34.8158L41.1369 34.0154L40.2282 33.6153L38.1631 32.7349L37.5023 32.5748L37.0892 33.1351C36.7588 33.5352 36.4284 33.8554 36.098 34.0955C35.7676 34.3356 35.3546 34.4156 34.7763 34.4156C34.3633 34.4156 34.0329 34.3356 33.9503 34.1755C33.7851 34.0154 33.7851 33.6953 33.8677 33.2151C33.8677 33.135 33.8677 33.055 33.9503 32.8949C33.9503 32.8149 34.0329 32.6548 34.0329 32.5748L34.6937 30.814C34.9415 30.0937 35.3546 29.5334 35.8502 29.0532C36.2632 28.653 36.8414 28.4929 37.5023 28.4929C37.8327 28.4929 37.9979 28.4929 38.0805 28.573C38.1631 28.653 38.2457 28.653 38.3283 28.7331C38.4109 28.8131 38.4109 28.8931 38.4935 28.9732C38.5761 29.1332 38.5761 29.2933 38.6587 29.4534L38.8239 30.4138L39.7326 30.0937L42.2107 29.2133L42.8715 28.9732L42.7063 28.3329C42.4585 27.2924 41.9629 26.412 41.2195 25.7717C40.3108 25.1314 39.237 24.8113 37.9153 24.8113Z" fill="#E01F35"/>
<path d="M43.9454 25.7717H46.5887L44.854 30.3338H46.6713L49.8929 26.8922C50.3059 26.4921 50.6363 26.1719 51.0493 26.0118C51.3798 25.8518 51.8754 25.7717 52.4536 25.7717H53.6101L52.784 27.8527H51.7928L49.5625 30.1737C49.2321 30.4939 48.9016 30.734 48.6538 30.894C48.406 31.0541 48.0756 31.1342 47.6626 31.2142V31.2942C47.9104 31.3743 48.0756 31.5343 48.2408 31.6944C48.406 31.8545 48.4886 32.0946 48.5712 32.4147L49.0668 34.9759H50.1407L49.3147 36.9768H48.406C48.0756 36.9768 47.8278 36.9768 47.6626 36.8968C47.4148 36.8167 47.2496 36.8167 47.1669 36.6567C47.0017 36.5766 46.9191 36.4165 46.8365 36.2565C46.7539 36.0964 46.6713 35.8563 46.5887 35.6162L45.8453 32.4147H44.028L42.2933 36.9768H39.7326L43.9454 25.7717Z" fill="white"/>
<path d="M53.6101 25.7718L52.784 27.8527H51.7928L49.5625 30.1738C49.2321 30.4939 48.9017 30.734 48.6538 30.8941C48.406 31.0541 48.0756 31.1342 47.6626 31.2142V31.2943C47.9104 31.3743 48.0756 31.5344 48.2408 31.6944C48.406 31.8545 48.4886 32.0946 48.5712 32.4148L49.0669 34.9759H50.1407L49.3147 36.9768H48.406C48.0756 36.9768 47.8278 36.9768 47.6626 36.8968C47.4148 36.8168 47.2496 36.8168 47.167 36.6567C47.0018 36.5766 46.9192 36.4166 46.8366 36.2565C46.754 36.0964 46.6713 35.8563 46.5887 35.6162L45.8453 32.4148H44.028L42.2933 36.9768H39.7326L44.028 25.7718H46.5887L44.8541 30.3338H46.6713L49.8929 26.8923C50.3059 26.4921 50.6363 26.1719 51.0494 26.0119C51.3798 25.8518 51.8754 25.7718 52.4536 25.7718H53.6101ZM54.8492 24.9714H53.6101H52.4536C51.7928 24.9714 51.132 25.1315 50.7189 25.2915C50.2233 25.5316 49.8103 25.8518 49.3147 26.332L46.3409 29.5335H46.0931L47.4148 26.0119L47.8278 24.8914H46.5887H43.9454H43.3672L43.202 25.4516L38.9066 36.6567L38.4935 37.6972H39.65H42.2107H42.7889L42.9542 37.1369L44.5236 33.0551H45.1019L45.5975 35.6963C45.6801 36.0164 45.7627 36.2565 45.8453 36.4966C46.0105 36.8168 46.1757 37.0569 46.4235 37.2169C46.6713 37.377 46.9192 37.5371 47.2496 37.6171C47.4974 37.6972 47.8278 37.6972 48.1582 37.6972H49.0669H49.6451L49.8103 37.2169L50.6363 35.216L51.0494 34.0955H49.8103H49.3973L48.9843 32.1747C48.9017 31.9345 48.9017 31.6944 48.819 31.5344C49.1495 31.3743 49.4799 31.0541 49.8929 30.654L51.8754 28.573H52.4536H53.0319L53.1971 28.0928L54.0231 26.0119L54.8492 24.9714Z" fill="#E01F35"/>
<path d="M55.0969 25.7717H57.6576L55.3447 31.3743L54.1056 33.6953H54.1882L56.2533 31.5343L62.6964 25.7717H65.092L60.3835 36.9768H57.8228L60.1357 31.4543L61.4574 29.2133H61.3748L59.3097 31.3743L52.9491 37.0568H50.6362L55.0969 25.7717Z" fill="white"/>
<path d="M65.1746 25.7718L60.4662 36.9769H57.9055L60.2184 31.4544L61.4574 29.2134H61.3748L59.3097 31.3743L52.9492 37.0569H50.6363L55.0969 25.8518H57.6577L55.3447 31.4544L54.1057 33.7754H54.1883L56.2534 31.6144L62.6965 25.8518H65.1746M66.4137 24.9714H65.1746H62.7791H62.4487L62.2009 25.2115L56.8316 29.9337L58.4011 26.0919L58.8141 24.9714H57.5751H55.0143H54.4361L54.2709 25.4517L49.8103 36.6567L49.3972 37.7772H50.6363H52.9492H53.2796L53.5275 37.5371L58.7315 32.895L57.162 36.6567L56.6664 37.7772H57.9055H60.4662H61.0444L61.2922 37.297L66.0007 26.0919L66.4137 24.9714Z" fill="#E01F35"/>
</g>
<defs>
<clipPath id="clip0_1135_15556">
<rect width="78" height="42" fill="white"/>
</clipPath>
</defs>
</svg>
