<svg width="284" height="64" viewBox="0 0 284 64" fill="none" xmlns="http://www.w3.org/2000/svg">
<g clip-path="url(#clip0_1224_9160)">
<path d="M98.1 0.199951H75V32.9H98.1V0.199951Z" fill="#2D245B"/>
<path d="M18.8 4H24.2L18.2 24.6H25.8L31.9 4H37.3L31 24.7H38.6L45.1 4H50.5L42.4 29.3H11.4L18.8 4Z" fill="#2D245B"/>
<path d="M50.5 3.99995L42.4 29.2999H11.4L18.8 3.99995H24.2L18.2 24.6H25.8L31.9 3.99995H37.3L31 24.7H38.6L45.1 3.99995H50.5ZM55.7 0.199951H50.6H45.2H42.6H37.5H32.1H29.3H24.3H18.9H16L15.2 2.79995L7.9 28.2L6.5 33H11.5H42.7H45.5L46.3 30.4L54.4 5.09995L55.7 0.199951Z" fill="#2D245B"/>
<path d="M54.4001 3.9999H59.7001L55.7001 16.5999L53.5 21.6999H53.7001L57.7001 16.8999L70.4001 3.8999H75.4001L66.9001 29.1999H61.8L66 16.9999L68.3001 11.8999H68.1L64.1 16.6999L51.6 29.2999H46.8L54.4001 3.9999Z" fill="#2D245B"/>
<path d="M75 4L66.5 29.3H61.4L65.5999 17.1L67.9 12H67.6999L63.6999 16.8L51.2999 29.5H46.5L54.4 4H59.7L55.7 16.6L53.5 21.7H53.7L57.7 16.9L70.4 3.9H75M80.3 0.2H75H70H68.4L67.3 1.3L62.7999 5.8L63.3 5L64.9 0H59.7999H54.5H51.7L50.9 2.6L42.7999 27.9L41.2 32.9H46.2999H51.0999H52.7L53.7999 31.8L57.7999 27.6L57.5999 27.9L55.9 32.9H61.2H66.3H69L69.9 30.4L78.4 5.1L80.3 0.2Z" fill="#2D245B"/>
<path d="M88.7 18.9H79.1L75.5 29.1H70.2L78.9 3.80005H84.3L80.7 14H90.3L94 3.80005H99.4L90.3 29.1H85L88.7 18.9Z" fill="#2D245B"/>
<path d="M99.4 3.99995L90.3 29.2999H85L88.7 19.1H79.1L75.5 29.2999H70.2L78.9 3.99995H84.3L80.7 14.2H90.3L94.1 3.99995H99.4ZM104.8 0.199951H99.4H94H91.4L90.5 2.69995L87.7 10.5H86L87.9 5.19995L89.6 0.199951H84.3H78.9H76.3L75.4 2.69995L66.7 28L65 33H70.3H75.6H78L78.9 30.5L81.7 22.7H83.4L81.5 28L79.6 33H85H90.3H92.9L93.8 30.5L102.9 5.19995L104.8 0.199951Z" fill="#2D245B"/>
<path d="M103.3 4H108.7L105.3 13.3H110C112.6 13.3 114.5 13.9 115.7 15C116.9 16.2 117.3 17.8 116.9 20C116.6 21.4 116.1 22.6 115.5 23.9C114.7 25 113.9 25.9 112.9 26.8C111.8 27.6 110.7 28.2 109.5 28.7C108.3 29.2 106.9 29.3 105.3 29.3H94.1L103.3 4ZM106.7 24.7C107.5 24.7 108.2 24.5 109 24.1C109.6 23.6 110.2 23 110.6 22.1C110.8 21.6 110.9 21.2 111.1 20.7C111.3 20.2 111.4 19.9 111.4 19.8C111.6 19.2 111.4 18.9 111.1 18.6C110.8 18.3 110.3 18.1 109.4 18.1H103.5L101 24.8H106.7V24.7ZM126.5 4H131.9L122 29.3H116.7L126.5 4Z" fill="#2D245B"/>
<path d="M131.9 4L122 29.3H116.7L126.5 4H131.9ZM108.7 4L105.3 13.3H110C112.6 13.3 114.5 13.9 115.7 15C116.9 16.2 117.3 17.8 116.9 20C116.6 21.4 116.1 22.6 115.5 23.9C114.7 25 113.9 25.9 112.9 26.8C111.8 27.6 110.7 28.2 109.5 28.7C108.3 29.2 106.9 29.3 105.3 29.3H94.1L103.4 4H108.7ZM100.9 24.7H106.6C107.4 24.7 108.1 24.5 108.9 24.1C109.5 23.6 110.1 23 110.5 22.1C110.7 21.6 110.8 21.2 111 20.7C111.2 20.2 111.3 19.9 111.3 19.8C111.5 19.2 111.3 18.9 111 18.6C110.7 18.3 110.2 18.1 109.3 18.1H103.4L100.9 24.7ZM137.5 0.2H131.9H126.5H123.9L123 2.5L119 13C118.8 12.7 118.5 12.4 118.4 12.2C116.5 10.5 114.1 9.4 110.8 9.4L112.3 5.1L114.2 0H108.8H103.4H100.8L99.9 2.5L90.6 27.8L88.7 32.9H94H105.2C107.1 32.9 108.8 32.6 110.5 32.1C111 31.9 111.4 31.8 111.7 31.6L111.2 33H116.6H121.9H124.4L125.3 30.7L135.2 5.4L137.5 0.2Z" fill="#2D245B"/>
<path d="M18.8 4H24.2L18.2 24.6H25.8L31.9 4H37.3L31 24.7H38.6L45.1 4H50.5L42.4 29.3H11.4L18.8 4Z" fill="white"/>
<path d="M54.4001 3.9999H59.7001L55.7001 16.5999L53.5 21.6999H53.7001L57.7001 16.8999L70.4001 3.8999H75.4001L66.9001 29.1999H61.8L66 16.9999L68.3001 11.8999H68.1L64.1 16.6999L51.6 29.2999H46.8L54.4001 3.9999Z" fill="white"/>
<path d="M88.7 18.9H79.1L75.5 29.1H70.2L78.9 3.80005H84.3L80.7 14H90.3L94 3.80005H99.4L90.3 29.1H85L88.7 18.9Z" fill="white"/>
<path d="M103.3 4H108.7L105.3 13.3H110C112.6 13.3 114.5 13.9 115.7 15C116.9 16.2 117.3 17.8 116.9 20C116.6 21.4 116.1 22.6 115.5 23.9C114.7 25 113.9 25.9 112.9 26.8C111.8 27.6 110.7 28.2 109.5 28.7C108.3 29.2 106.9 29.3 105.3 29.3H94.1L103.3 4ZM106.7 24.7C107.5 24.7 108.2 24.5 109 24.1C109.6 23.6 110.2 23 110.6 22.1C110.8 21.6 110.9 21.2 111.1 20.7C111.3 20.2 111.4 19.9 111.4 19.8C111.6 19.2 111.4 18.9 111.1 18.6C110.8 18.3 110.3 18.1 109.4 18.1H103.5L101 24.8H106.7V24.7ZM126.5 4H131.9L122 29.3H116.7L126.5 4Z" fill="white"/>
<path d="M230.247 9.37817H202.798V24.5892H230.247V9.37817Z" fill="#E01F35"/>
<path d="M145.185 25.1609H148.388C148.96 24.8178 149.417 24.2459 149.989 23.7885C150.561 23.2166 151.018 22.416 151.59 21.5011C152.162 20.5861 152.619 19.5568 153.191 18.2988C153.763 17.0407 154.221 15.6683 154.792 13.8384L157.423 4.80322H176.408L169.889 25.1609H174.121L170.918 34.8823H165.772L167.373 29.7357H149.303L147.702 34.8823H142.555L145.185 25.1609ZM164.171 25.1609L169.089 9.37798H161.311L160.053 13.6096C159.482 15.4395 159.024 16.9263 158.452 18.1844C157.88 19.4425 157.537 20.4718 157.08 21.3867C156.737 22.3017 156.165 22.9879 155.822 23.5597C155.479 24.1316 154.907 24.5891 154.564 25.1609V25.3896H164.171V25.1609V25.1609Z" fill="white"/>
<path d="M176.686 4.23165L170.167 24.5893H174.399L171.196 34.3107H166.05L167.651 29.1641H149.581L147.979 34.3107H142.833L145.692 24.5893H148.894C149.466 24.2462 149.924 23.6744 150.496 23.2169C151.067 22.6451 151.525 21.8445 152.097 20.9295C152.669 20.0146 153.126 18.9853 153.698 17.7272C154.27 16.4691 154.727 15.0967 155.299 13.2668L157.93 4.23165H176.686ZM169.481 9.03515H161.704L160.446 13.2668C159.874 15.0967 159.416 16.5835 158.844 17.8416C158.273 19.0996 157.93 20.1289 157.472 21.0439C157.129 21.9588 156.557 22.6451 156.214 23.2169C155.871 23.7887 155.299 24.2462 154.956 24.8181V25.0468H164.677L169.481 9.03515ZM182.519 0H176.686H157.586H154.384L153.469 2.97359L150.839 12.0087C150.267 13.6099 149.924 14.9823 149.466 16.126C149.123 17.1553 148.551 18.0703 148.208 18.9853C147.865 19.6715 147.522 20.2433 147.179 20.5864H145.578H142.375L141.46 23.56L138.601 33.167L137 38.6567H142.718H147.865H151.067L151.982 35.6831L152.669 33.5101H161.932L160.331 38.6567H166.164H171.311H174.284L175.199 35.6831L178.516 26.0761L180.231 20.5864H175.771L180.575 5.71845L182.519 0Z" fill="#E01F35"/>
<path d="M183.584 4.57446H189.074L184.956 17.0407L182.669 22.1873H182.898L187.015 17.3838L200.167 4.57446H205.314L196.851 29.3925H191.361L195.478 17.1551L197.766 12.0084H197.423L193.305 16.9263L180.382 29.5069H175.464L183.584 4.57446Z" fill="white"/>
<path d="M205.085 4.57491L196.622 29.393H191.132L195.135 17.1555L197.423 12.0089H197.194L193.305 16.9268L180.382 29.5074H175.464L183.584 4.68928H189.074L185.071 17.1555L182.783 22.0734H183.012L187.129 17.2699L200.167 4.57491H205.085ZM211.147 0.343262H205.085H199.939H198.109L197.08 1.60132L193.534 5.14676L195.135 0.343262H189.302H183.813H180.839L179.581 3.31686L171.461 28.1349L169.631 33.6246H175.464H180.382H182.212L183.47 32.3666L186.672 29.1642L185.3 33.6246H191.132H196.622H199.596L200.625 30.7654L209.088 5.94734L211.147 0.343262Z" fill="#E01F35"/>
<path d="M211.261 29.9647C209.889 29.9647 208.631 29.7359 207.373 29.2785C206.343 28.9354 205.428 28.2492 204.514 27.3342C203.827 26.4192 203.255 25.3899 202.912 24.1319C202.569 22.8738 202.569 21.5014 202.684 19.6715C203.027 17.4985 203.599 15.4398 204.514 13.4956C205.428 11.5513 206.687 9.95012 208.059 8.57769C209.431 7.20526 211.033 6.06157 212.977 5.26099C214.807 4.34604 216.751 4.00293 218.695 4.00293C221.211 4.00293 223.156 4.57477 224.414 5.6041C225.786 6.63342 226.701 8.23458 227.044 10.1789L221.669 12.1231C221.669 11.5513 221.44 11.2082 221.326 10.7507C221.097 10.4076 220.983 10.0645 220.64 9.72138C220.296 9.37827 219.953 9.14953 219.381 9.03516C218.81 8.80643 218.352 8.69206 217.552 8.69206C215.722 8.69206 214.235 9.2639 212.977 10.522C211.719 11.78 210.689 13.1524 210.003 15.0967L208.631 18.9853C208.402 19.3284 208.402 19.6715 208.288 20.0146C208.288 20.3577 208.059 20.5864 208.059 20.9295C207.716 23.9031 208.974 25.5043 211.948 25.5043C213.549 25.5043 214.807 25.1612 215.722 24.475C216.751 23.7888 217.666 22.8738 218.352 21.8445L222.813 23.7888C221.211 25.9618 219.496 27.5629 217.437 28.3635C215.722 29.3928 213.549 29.9647 211.261 29.9647Z" fill="white"/>
<path d="M219.038 4.23165C221.554 4.23165 223.499 4.8035 224.757 5.83282C226.129 6.86214 227.044 8.4633 227.387 10.4076L222.012 12.3518C222.012 11.78 221.783 11.4369 221.669 10.9794C221.44 10.6363 221.326 10.2932 220.983 9.9501C220.64 9.60699 220.296 9.37826 219.725 9.26389C219.153 9.03515 218.695 8.92078 217.895 8.92078C216.065 8.92078 214.578 9.49262 213.32 10.7507C212.062 12.0087 211.033 13.3812 210.346 15.3254L208.974 19.214C208.745 19.5571 208.745 19.9002 208.631 20.2433C208.631 20.5864 208.402 20.8152 208.402 21.1583C208.059 24.1319 209.317 25.733 212.291 25.733C213.892 25.733 215.15 25.3899 216.065 24.7037C217.094 24.0175 218.009 23.1025 218.695 22.0732L223.156 24.0175C221.554 26.1905 219.839 27.7917 217.78 28.5922C215.607 29.6216 213.549 30.1934 211.261 30.1934C209.889 30.1934 208.631 29.9647 207.373 29.5072C206.343 29.1641 205.428 28.4779 204.514 27.5629C203.827 26.648 203.255 25.6186 202.912 24.3606C202.569 23.1025 202.569 21.7301 202.684 19.9002C203.027 17.7272 203.599 15.6685 204.514 13.7243C205.428 11.78 206.687 10.1788 208.059 8.80641C209.431 7.43398 211.033 6.29029 212.977 5.48971C215.15 4.57476 217.094 4.23165 219.038 4.23165ZM219.038 0C216.408 0 213.892 0.571845 211.604 1.60117C209.317 2.63049 207.373 4.11728 205.428 5.83282C203.599 7.66272 202.226 9.60699 200.968 12.0087C199.71 14.2961 199.024 16.8122 198.681 19.4427C198.338 21.6157 198.452 23.6744 198.909 25.2755C199.481 27.2198 200.167 28.821 201.426 30.1934C202.684 31.5658 204.056 32.4808 205.886 33.167C207.487 33.7388 209.203 34.082 211.261 34.082C214.235 34.082 217.094 33.3957 219.725 32.1377C222.355 30.8796 224.642 28.821 226.587 26.0761L229.56 21.8445L224.757 19.6715L220.296 17.7272L219.61 17.3841L223.384 16.0117L228.76 14.0674L232.076 12.8093L231.39 9.26389C230.818 6.29029 229.446 3.88854 227.159 2.17301C225.329 0.914952 222.469 0 219.038 0ZM212.862 21.2726V21.0439C212.862 20.8152 212.862 20.8152 213.091 20.472L214.464 16.5835C214.807 15.3254 215.493 14.4105 216.294 13.7243C216.865 13.1524 217.323 13.0381 218.123 13.0381L218.81 16.9266L217.437 16.3548L215.493 19.214C214.921 19.9002 214.578 20.472 213.892 20.8152C213.549 21.0439 213.206 21.2726 212.862 21.2726Z" fill="#E01F35"/>
<path d="M232.077 4.57457H237.795L234.021 14.639H237.909L244.771 6.97632C245.686 6.06137 246.373 5.37516 247.288 5.03205C247.974 4.68894 249.117 4.46021 250.261 4.46021H252.777L251.062 9.03496H248.889L244.085 14.1816C243.399 14.8678 242.713 15.4396 242.141 15.7827C241.569 16.1258 240.883 16.3546 239.968 16.4689V16.6977C240.54 16.9264 240.883 17.2695 241.226 17.6126C241.569 17.9557 241.798 18.5276 241.912 19.2138L242.942 24.9323H245.229L243.399 29.3926H241.455C240.769 29.3926 240.197 29.3926 239.854 29.1639C239.282 28.9352 238.939 28.9352 238.824 28.5921C238.481 28.3633 238.252 28.0202 238.138 27.6771C237.909 27.334 237.795 26.7622 237.566 26.3047L235.965 19.2138H232.077L228.302 29.2783H222.813L232.077 4.57457Z" fill="white"/>
<path d="M252.777 4.57491L251.062 9.14967H248.889L244.085 14.2963C243.399 14.9825 242.713 15.5543 242.141 15.8974C241.569 16.2405 240.883 16.4693 239.968 16.5837V16.8124C240.54 17.0411 240.883 17.3842 241.226 17.7273C241.569 18.0705 241.798 18.6423 241.912 19.3285L242.942 25.047H245.229L243.399 29.5074H241.455C240.769 29.5074 240.197 29.5074 239.854 29.2786C239.282 29.0499 238.939 29.0499 238.824 28.7068C238.481 28.478 238.252 28.1349 238.138 27.7918C237.909 27.4487 237.795 26.8769 237.566 26.4194L235.965 19.3285H232.077L228.302 29.393H222.813L232.191 4.57491H237.681L233.906 14.6394H237.795L244.657 6.97666C245.572 6.06171 246.258 5.3755 247.173 5.03239C247.859 4.68928 249.003 4.46054 250.147 4.46054H252.777M258.953 0.343262H252.777H250.261C248.317 0.343262 246.716 0.686369 245.343 1.37258C244.428 1.94443 243.513 2.4019 242.827 3.20249L243.857 0.343262H237.681H231.962H228.989L227.959 3.20249L218.695 28.0206L216.522 33.739H222.584H228.074H231.047L232.077 30.8798L233.106 28.0206C233.335 28.7068 233.449 29.2786 233.678 29.8505C234.25 30.8798 234.936 31.6804 235.622 32.3666C236.308 32.9384 237.452 33.3959 238.481 33.6246C239.167 33.8534 240.082 33.8534 240.997 33.8534H242.942H245.801L246.83 31.2229L248.66 26.7625L250.947 20.9297H246.601L246.258 18.6423C246.601 18.2992 247.173 17.9561 247.516 17.3842L251.062 13.6101H251.291H254.15L255.179 10.9796L257.009 6.40482L258.953 0.343262Z" fill="#E01F35"/>
<path d="M255.98 4.57446H261.469L256.551 17.0407L253.921 22.1873H254.15L258.61 17.3838L272.334 4.57446H277.481L267.416 29.3925H261.927L266.845 17.1551L269.704 12.2372H269.475L265.015 17.0407L251.405 29.6213H246.487L255.98 4.57446Z" fill="white"/>
<path d="M277.595 4.57491L267.531 29.393H262.041L266.959 17.1555L269.589 12.2376H269.475L265.015 17.0411L251.405 29.6217H246.487L256.094 4.80365H261.584L256.551 17.1555L253.921 22.3021H254.15L258.61 17.4986L272.449 4.68928H277.824M284 0.343262H277.595H272.449H270.848L269.589 1.60132L266.044 4.80365L267.76 0.343262H261.584H256.094H253.235L252.205 2.97375L242.598 27.7918L240.311 33.6246H246.487H251.405H253.006L254.264 32.5953L257.238 29.7361L255.636 33.6246H262.041H267.531H270.39L271.419 30.9941L281.484 6.17608L284 0.343262Z" fill="#E01F35"/>
<path d="M176.408 4.57491L169.889 24.9326H174.121L170.918 34.6539H165.772L167.373 29.5073H149.303L147.701 34.6539H142.555L145.414 24.9326H148.616C149.188 24.5895 149.646 24.0176 150.218 23.5602C150.789 22.9883 151.247 22.1877 151.819 21.2728C152.391 20.3578 152.848 19.3285 153.42 18.0704C153.992 16.8124 154.449 15.44 155.021 13.6101L157.652 4.57491H176.408ZM169.203 9.37841H161.426L160.168 13.6101C159.596 15.44 159.138 16.9268 158.566 18.1848C157.995 19.4429 157.652 20.4722 157.194 21.3871C156.851 22.3021 156.279 22.9883 155.936 23.5602C155.593 24.132 155.021 24.5895 154.678 25.1613V25.3901H164.399L169.203 9.37841ZM178.695 2.85938H176.408H157.308H156.05L155.707 4.11743L153.077 13.1526C152.505 14.7537 152.047 16.1262 151.704 17.3842C151.132 18.6423 150.789 19.5572 150.332 20.3578C149.989 21.044 149.417 21.7303 149.074 22.3021C148.731 22.6452 148.502 22.9883 148.159 23.217H145.643H144.385L143.699 24.5895L140.839 34.3108L140.153 36.5982H142.44H147.587H148.845L149.188 35.3402L150.446 31.4516H164.971L164.056 34.3108L163.37 36.5982H165.886H171.033H172.291L172.634 35.3402L175.836 25.6188L176.522 23.3314H174.006H172.062L178.124 5.03239L178.695 2.85938ZM162.798 11.2083H166.915L163.027 23.4458H158.223C158.452 23.1027 158.795 22.5308 158.91 22.1877C159.481 21.2728 159.825 20.0147 160.282 18.871C160.854 17.613 161.311 16.0118 161.883 14.2963L162.798 11.2083Z" fill="#E01F35"/>
<path d="M205.085 4.57491L196.622 29.393H191.132L195.135 17.1555L197.423 12.0089H197.194L193.305 16.9268L180.382 29.5073H175.464L183.584 4.68928H189.074L185.071 17.1555L182.783 22.0734H183.012L187.129 17.2699L200.168 4.57491H205.085ZM207.602 2.85938H205.085H199.939H199.253L198.681 3.43122L187.701 14.0675L190.561 5.14675L191.247 2.85938H188.731H183.241H181.983L181.64 4.11743L173.52 28.9355L172.833 31.2229H175.349H180.267H180.954L181.525 30.651L192.162 20.3578L189.302 28.8211L188.616 31.1085H191.132H196.622H197.88L198.223 29.8505L206.687 5.03239L207.602 2.85938Z" fill="#E01F35"/>
<path d="M219.038 4.23165C221.554 4.23165 223.499 4.80349 224.757 5.83281C226.129 6.86213 227.044 8.4633 227.387 10.4076L222.012 12.3518C222.012 11.78 221.783 11.4369 221.669 10.9794C221.44 10.6363 221.326 10.2932 220.983 9.9501C220.64 9.60699 220.296 9.37825 219.725 9.26388C219.153 9.03515 218.695 8.92078 217.895 8.92078C216.065 8.92078 214.578 9.49262 213.32 10.7507C212.062 12.0087 211.033 13.3812 210.346 15.3254L208.974 19.214C208.745 19.5571 208.745 19.9002 208.631 20.2433C208.631 20.5864 208.402 20.8151 208.402 21.1583C208.059 24.1318 209.317 25.733 212.291 25.733C213.892 25.733 215.15 25.3899 216.065 24.7037C217.094 24.0175 218.009 23.1025 218.695 22.0732L223.156 24.0175C221.554 26.1905 219.839 27.7917 217.78 28.5922C215.607 29.6216 213.549 30.1934 211.261 30.1934C209.889 30.1934 208.631 29.9647 207.373 29.5072C206.343 29.1641 205.428 28.4779 204.513 27.5629C203.827 26.648 203.255 25.6186 202.912 24.3606C202.569 23.1025 202.569 21.7301 202.684 19.9002C203.027 17.7272 203.599 15.6685 204.513 13.7243C205.428 11.78 206.686 10.1788 208.059 8.80641C209.431 7.43398 211.033 6.29029 212.977 5.48971C215.15 4.57475 217.094 4.23165 219.038 4.23165ZM219.038 2.51611C216.751 2.51611 214.578 3.08796 212.634 3.88854C210.689 4.80349 208.745 6.06155 207.144 7.66272C205.543 9.26388 204.285 10.9794 203.255 13.1524C202.226 15.3254 201.425 17.3841 201.311 19.9002C201.082 21.8445 201.082 23.4456 201.54 24.8181C201.883 26.4192 202.569 27.6773 203.484 28.7066C204.399 29.7359 205.657 30.5365 207.03 30.994C208.288 31.5658 209.889 31.6802 211.49 31.6802C214.12 31.6802 216.637 31.1084 218.81 29.8503C221.097 28.821 223.041 26.9911 224.871 24.475L226.015 22.8738L224.071 21.9588L219.61 20.0146L218.238 19.6715L217.323 20.9295C216.637 21.8445 215.95 22.5307 215.15 23.1025C214.464 23.6744 213.549 23.7887 212.291 23.7887C211.376 23.7887 210.689 23.56 210.461 23.2169C210.118 22.8738 210.118 22.1876 210.232 21.0439C210.232 20.8151 210.232 20.7008 210.461 20.3577C210.461 20.1289 210.689 19.7858 210.689 19.6715L212.062 15.7829C212.634 14.1817 213.434 12.9237 214.578 11.8944C215.493 10.9794 216.751 10.6363 218.123 10.6363C218.81 10.6363 219.153 10.6363 219.381 10.865C219.61 11.0938 219.725 11.0938 219.953 11.2082C220.182 11.3225 220.182 11.5513 220.296 11.78C220.525 12.1231 220.525 12.4662 220.639 12.8093L220.983 14.9823L222.927 14.2961L228.302 12.3518L229.675 11.78L229.332 10.2932C228.76 8.00582 227.73 6.06155 226.129 4.57475C224.185 3.20233 221.898 2.51611 219.038 2.51611Z" fill="#E01F35"/>
<path d="M252.777 4.57489L251.062 9.14965H248.889L244.085 14.2963C243.399 14.9825 242.713 15.5543 242.141 15.8974C241.569 16.2405 240.883 16.4693 239.968 16.5836V16.8124C240.54 17.0411 240.883 17.3842 241.226 17.7273C241.569 18.0704 241.798 18.6423 241.912 19.3285L242.942 25.0469H245.229L243.399 29.5073H241.455C240.769 29.5073 240.197 29.5073 239.854 29.2786C239.282 29.0498 238.939 29.0498 238.824 28.7067C238.481 28.478 238.252 28.1349 238.138 27.7918C238.024 27.4487 237.795 26.8768 237.566 26.4194L235.965 19.3285H232.077L228.302 29.393H222.813L232.191 4.57489H237.681L233.906 14.6394H237.795L244.657 6.97664C245.572 6.06168 246.258 5.37547 247.173 5.03236C247.859 4.68926 249.003 4.46052 250.147 4.46052H252.777M255.408 2.85935H252.777H250.261C248.889 2.85935 247.402 3.20246 246.487 3.54557C245.458 4.11741 244.543 4.80363 243.513 5.83295L237.109 12.9238H236.537L239.396 5.14673L240.311 2.63062H237.681H231.962H230.704L230.361 3.88867L221.097 28.7067L220.182 30.9941H222.698H228.188H229.446L229.789 29.7361L233.106 20.7009H234.364L235.393 26.5337C235.622 27.2199 235.736 27.7918 235.965 28.3636C236.308 29.0498 236.651 29.6217 237.223 29.9648C237.795 30.3079 238.252 30.651 239.053 30.8798C239.625 31.1085 240.311 31.1085 240.997 31.1085H242.942H244.2L244.543 30.0792L246.373 25.6188L247.288 23.1027H244.657H243.742L242.827 18.871C242.598 18.2992 242.598 17.8417 242.484 17.4986C243.17 17.1555 243.857 16.4693 244.771 15.5543L249.003 10.9796H250.261H251.519L251.862 9.95023L253.692 5.37547L255.408 2.85935Z" fill="#E01F35"/>
<path d="M277.595 4.57491L267.531 29.393H262.041L266.959 17.1555L269.589 12.2376H269.475L265.015 17.0411L251.405 29.6217H246.487L256.094 4.80365H261.584L256.551 17.1555L253.921 22.3021H254.15L258.61 17.4986L272.449 4.68928H277.824M280.226 2.85938H277.595H272.449H271.762L271.191 3.43122L259.639 13.8388L262.956 5.37549L263.871 2.85938H261.241H255.751H254.607L254.264 3.8887L244.657 28.7068L243.742 31.2229H246.373H251.29H251.977L252.548 30.651L263.757 20.3578L260.44 28.7068L259.411 31.2229H262.041H267.531H268.789L269.361 30.1936L279.425 5.37549L280.226 2.85938Z" fill="#E01F35"/>
<path d="M145.185 25.0111H145.071L145.041 25.122L142.41 34.8433L142.359 35.0325H142.555H147.702H147.812L147.845 34.9271L149.413 29.8859H167.169L165.629 34.8379L165.568 35.0325H165.772H170.918H171.027L171.061 34.9294L174.263 25.2081L174.328 25.0111H174.121H170.095L176.551 4.84921L176.614 4.65347H176.408H157.423H157.31L157.279 4.76154L154.649 13.7952C154.077 15.6244 153.622 16.9885 153.055 18.2369C153.021 18.3106 152.988 18.3835 152.955 18.4556C152.428 19.6171 151.995 20.5701 151.463 21.4218C151.378 21.557 151.297 21.689 151.217 21.8177C150.754 22.5668 150.361 23.2025 149.889 23.6769C149.658 23.8622 149.444 24.0663 149.24 24.2617C149.188 24.3114 149.136 24.3606 149.085 24.4088C148.84 24.6406 148.603 24.851 148.346 25.0111H145.185ZM164.027 25.1165L164.021 25.1383V25.1611V25.2399H154.714V25.2033C154.874 24.9452 155.084 24.7084 155.305 24.4602L155.31 24.4549C155.535 24.2012 155.772 23.9351 155.95 23.6372C156.047 23.4761 156.158 23.3122 156.278 23.1337C156.373 22.9942 156.473 22.8458 156.577 22.683C156.807 22.3232 157.041 21.9153 157.217 21.447C157.448 20.9856 157.649 20.4967 157.862 19.9708C157.88 19.9271 157.898 19.8831 157.916 19.8388C158.115 19.3468 158.328 18.8207 158.589 18.2467C159.143 17.0269 159.59 15.5957 160.131 13.8634C160.153 13.7943 160.175 13.7247 160.197 13.6546L160.197 13.6526L161.423 9.52823H168.885L164.027 25.1165Z" fill="white" stroke="white" stroke-width="0.3"/>
<path d="M183.584 4.42471H183.475L183.441 4.52826L175.321 29.4607L175.257 29.6571H175.464H180.382H180.443L180.486 29.6146L193.41 17.034L193.416 17.0287L193.42 17.0228L197.493 12.1587H197.535L195.341 17.0944L195.341 17.0941L195.336 17.1075L191.219 29.3449L191.152 29.5428H191.361H196.851H196.958L196.993 29.4412L205.456 4.62312L205.524 4.42471H205.314H200.168H200.107L200.063 4.46725L186.91 17.2766L186.91 17.2761L186.901 17.2864L182.976 21.8653L185.094 17.1018L185.097 17.095L185.099 17.088L189.216 4.62175L189.281 4.42471H189.074H183.584Z" fill="white" stroke="white" stroke-width="0.3"/>
<path d="M204.394 27.4244L204.4 27.433L204.407 27.4405C205.329 28.3624 206.263 29.0665 207.323 29.4204C208.597 29.8833 209.872 30.1149 211.261 30.1149C213.568 30.1149 215.764 29.5397 217.503 28.4989C219.594 27.6823 221.327 26.058 222.933 23.878L223.045 23.7266L222.873 23.6515L218.412 21.7072L218.297 21.6571L218.227 21.7615C217.552 22.7744 216.651 23.6752 215.638 24.3504L215.638 24.3502L215.632 24.3552C214.751 25.0155 213.529 25.3545 211.948 25.3545C210.485 25.3545 209.479 24.9612 208.875 24.2362C208.269 23.509 208.039 22.414 208.208 20.947L208.209 20.9384V20.9298C208.209 20.7911 208.254 20.6737 208.313 20.528L208.316 20.5201C208.369 20.3872 208.432 20.2292 208.437 20.0397C208.474 19.925 208.501 19.8052 208.526 19.6939C208.538 19.6388 208.55 19.5858 208.562 19.5366C208.603 19.373 208.655 19.22 208.756 19.0687L208.766 19.0531L208.772 19.0354L210.145 15.1469C210.822 13.2292 211.836 11.8751 213.083 10.6283C214.311 9.40066 215.758 8.8423 217.552 8.8423C218.332 8.8423 218.77 8.95248 219.326 9.17468L219.339 9.1798L219.352 9.1825C219.889 9.28997 220.207 9.50123 220.533 9.82769C220.693 9.98672 220.799 10.1463 220.896 10.3119C220.926 10.3634 220.956 10.4177 220.987 10.4735C221.049 10.5838 221.113 10.7 221.187 10.8125C221.226 10.9632 221.279 11.1078 221.328 11.2443C221.353 11.3122 221.377 11.3781 221.398 11.4417C221.466 11.6473 221.519 11.8592 221.519 12.1234V12.3371L221.72 12.2644L227.095 10.3202L227.214 10.2772L227.192 10.153C226.844 8.179 225.913 6.54218 224.506 5.48624C223.211 4.42816 221.229 3.85317 218.695 3.85317C216.735 3.85317 214.768 4.19885 212.915 5.12462C210.952 5.93355 209.336 7.08841 207.953 8.47187C206.572 9.85312 205.302 11.4681 204.378 13.4319C203.456 15.3915 202.88 17.4643 202.535 19.6483L202.535 19.6482L202.534 19.6624C202.419 21.4936 202.418 22.8877 202.768 24.1716C203.117 25.4515 203.698 26.4977 204.394 27.4244Z" fill="white" stroke="white" stroke-width="0.3"/>
<path d="M232.077 4.42482H231.973L231.936 4.52215L222.672 29.2258L222.596 29.4285H222.813H228.302H228.406L228.443 29.3312L232.181 19.364H235.845L237.42 26.338L237.424 26.3557L237.432 26.372C237.529 26.5654 237.604 26.7807 237.681 26.9994C237.691 27.0275 237.701 27.0557 237.711 27.084C237.793 27.3173 237.882 27.5564 238.002 27.7436C238.123 28.0937 238.355 28.4444 238.701 28.6892C238.782 28.885 238.932 28.9853 239.11 29.0596C239.195 29.095 239.292 29.1268 239.394 29.1602C239.403 29.1631 239.412 29.1661 239.421 29.1691C239.531 29.2052 239.651 29.2453 239.784 29.2979C239.984 29.4262 240.236 29.4847 240.51 29.5135C240.789 29.5429 241.11 29.5429 241.449 29.5429H241.455H243.399H243.5L243.538 29.4498L245.368 24.9894L245.453 24.7825H245.229H243.067L242.06 19.1894C242.06 19.1891 242.06 19.1888 242.06 19.1884C241.944 18.4896 241.707 17.8819 241.332 17.5068L241.327 17.5021C241.005 17.1795 240.665 16.8392 240.122 16.6C240.987 16.4784 241.654 16.2502 242.218 15.9116C242.805 15.5596 243.501 14.9784 244.191 14.2879L244.192 14.2879L244.195 14.2842L248.954 9.18521H251.062H251.166L251.202 9.08788L252.918 4.51312L252.994 4.31045H252.777H250.261C249.107 4.31045 247.942 4.53975 247.228 4.89461C246.286 5.25006 245.581 5.9553 244.682 6.85408L244.666 6.8705L244.665 6.87034L244.66 6.8765L237.842 14.4893H234.237L237.936 4.62749L238.012 4.42482H237.795H232.077Z" fill="white" stroke="white" stroke-width="0.3"/>
<path d="M255.98 4.42471H255.876L255.839 4.52155L246.347 29.5684L246.27 29.7715H246.487H251.405H251.464L251.507 29.7317L265.117 17.1511L265.117 17.1514L265.125 17.143L269.28 12.6679L266.715 17.0799L266.71 17.0893L266.706 17.0994L261.788 29.3368L261.705 29.5428H261.927H267.417H267.518L267.556 29.4491L277.62 4.63108L277.704 4.42471H277.481H272.334H272.275L272.232 4.46505L258.508 17.2744L258.508 17.2741L258.5 17.282L254.266 21.8416L256.685 17.1092L256.688 17.1027L256.691 17.096L261.609 4.62975L261.69 4.42471H261.469H255.98Z" fill="white" stroke="white" stroke-width="0.3"/>
<path d="M3.90002 59.3C3.30002 59.3 2.60002 58.9 2.10002 58.1C1.60002 57.4 1.20002 56.5 1.10002 55.5C0.900024 54.5 1.00002 53.4 1.30002 52.5C1.80002 51 2.50002 49.7 3.50002 48.5C4.40002 47.2 5.40002 46.2 6.30002 45.5C7.30002 44.7 8.10002 44.3 8.70002 44.3C9.10002 44.3 9.50002 44.5 10 44.8C10.4 45.1 10.9 45.5 11.2 46.1C11.6 46.7 11.7 47.4 11.8 48.3C11.8 49.2 11.7 50.1001 11.4 51.2001C11 52.0001 10.6 52.9 10 53.8C9.40002 54.7 8.70002 55.6 8.00002 56.5C7.20002 57.3 6.60002 58 5.90002 58.5C5.00002 59 4.40002 59.3 3.90002 59.3ZM5.90002 48.3C5.30002 48.8 5.00002 49.4 4.80002 50C4.60002 50.6 4.50002 51.4001 4.50002 52.2001C4.50002 53.0001 4.70002 53.6 5.00002 54.3C5.30002 54.7 5.80002 55 6.60002 55C6.90002 54.5 7.20002 54.1 7.40002 53.5C7.70002 52.6 7.80002 51.8 7.80002 51C7.70002 50.3 7.60002 49.5 7.20002 49.1C6.90002 48.7 6.50002 48.4 5.90002 48.3Z" fill="#E01F35"/>
<path d="M15.7 58.4999C15.1 58.4999 14.9 58.0999 14.9 57.8999C14.8 57.5999 14.9 57.2999 15 56.8999C15.1 56.4999 15.3 55.8999 15.7 54.8999C15.8 54.5999 15.9 54.2999 16 53.9999C16.1 53.6999 16.2 53.3999 16.3 53.2999L16.6 52.1999C16.9 51.1999 17.3 50.1999 17.7 49.1999C17.7 49.0999 17.8 48.7999 18 48.2999C18.1 47.8999 18.3 47.5999 18.5 47.0999C17.1 47.1999 16.2 47.6999 15.8 48.9999C15.8 49.0999 15.6 49.4999 15.6 50.3999L15.5 50.8999L13.1 51.3999V50.7999C13.2 49.7999 13 48.7999 12.8 47.7999C12.7 47.1999 12.7 46.6999 12.8 46.2999C12.9 45.8999 13.1 45.6999 13.4 45.3999C13.7 45.0999 14 44.8999 14.4 44.8999C14.5 44.8999 14.8 44.8999 15.7 45.0999C16.2 45.1999 17.2 45.1999 18.6 45.1999H23C24.4 45.1999 25.3 45.1999 25.9 45.0999C27 44.8999 27.3 44.8999 27.4 44.8999C27.6 44.8999 28 44.9999 28.2 45.3999C28.3 45.6999 28.3 45.9999 28.1 46.3999C27.9 46.8999 27.6 47.2999 27.1 47.8999C26.6 48.4999 26.1 48.8999 25.9 49.3999C25.6 49.7999 25.2 50.2999 24.8 50.9999L24.6 51.3999L22.4 50.8999L22.9 50.2999C23.3 49.6999 23.5 49.2999 23.7 48.8999C23.9 48.2999 24.1 47.6999 23.7 47.4999C23.4 47.1999 22.8 47.0999 22.2 47.0999C22.1 47.3999 22 47.6999 21.9 48.0999L21.6 49.0999C21.3 49.8999 21.1 50.4999 21 50.8999C20.7 51.7999 20.3 52.9999 19.8 54.4999C19.2 56.2999 19 57.0999 18.9 57.2999C18.7 57.7999 18.6 57.9999 18.3 58.1999C18 58.3999 17.7 58.4999 17.1 58.4999H15.7Z" fill="#E01F35"/>
<path d="M34.9 58.4L35.7 56.2H37.6L37.9 55.2H37.8C37.2 55.4 36.8 55.5 36.5 55.6C36.2 55.7 35.8 55.7 35.2 55.7C34.3 55.7 33.5 55.5 32.7 55.1C31.9 54.6 31.5 54 31.2 53.2C31 52.4 31 51.5 31.4 50.4C32 48.8 33 47.4 34.4 46.3C35.8 45.2 37.4 44.1 39.2 43.1C40.1 42.6 40.7 42.3 41.1 42C41.4 41.8 41.8 41.5 42.3 41.2H41L41.8 39H50.2L49.5 41H48C48.3 41.4 48.5 41.7 48.7 41.9C48.9 42.2 49.2 42.5 49.8 43.1C50.8 44.1 51.7 45.2 52.3 46.3C52.9 47.5 52.9 49 52.3 50.6C51.9 51.6 51.3 52.5 50.4 53.4C49.6 54.1 48.6 54.8 47.7 55.2C46.7 55.7 45.8 55.8 44.9 55.8C44.3 55.8 44 55.8 43.6 55.7C43.3 55.6 43 55.5 42.6 55.3C42.5 55.3 42.4 55.2 42.3 55.2L41.9 56.3H43.8L43 58.5H35L34.9 58.4ZM43.4 53.1C43.5 53.1 43.7 53.1 43.8 53.1C44.7 53.1 45.5 52.7 46.4 51.9C47.3 51.1 47.9 50.1 48.3 49.1C48.6 48.3 48.7 47.5 48.6 46.9C48.5 46.2 48.3 45.5 48.1 44.9C47.9 44.4 47.6 43.9 47.2 43.3L43.4 53.1ZM42.4 43.4C42 43.8 41.6 44 41.2 44.3C40.6 44.8 40 45.3 39.4 45.9C38.9 46.5 38.3 47 38 47.6C37.6 48.2 37.3 48.8 37.1 49.3C36.8 49.9 36.7 50.6 36.7 51.2C36.7 51.8 36.8 52.2 37.1 52.6C37.3 53 37.8 53.1 38.3 53.1C38.5 53.1 38.8 53.1 39 53L42.4 43.4Z" fill="#E01F35"/>
<path d="M56.4001 59.2999C55.6001 59.2999 54.7001 59.1 53.9001 58.7C53.0001 58.3 52.5001 57.6 52.2001 56.5C51.9001 55.5 52.0001 54.1 52.6001 52.4L52.9001 51.5C53.3001 50.6 53.9001 49.5999 54.6001 48.5999C55.4001 47.5999 56.3001 46.7 57.4001 45.9C58.5001 45.2 59.7001 44.7 60.9001 44.7C62.1001 44.7 63.2001 45.2 64.3001 46.2C64.5001 46.5 64.6001 46.5999 64.6001 46.5999C64.6001 46.5999 64.7001 46.6 64.8001 46.5L65.4001 46L66.0001 47.7999L65.5001 48.0999C64.3001 48.6999 63.4001 49.0999 62.7001 49.0999C61.9001 49.0999 61.2001 48.5 60.7001 47.4C60.6001 47 60.4001 46.7999 60.4001 46.7999C59.8001 46.7999 59.3001 47.3 58.8001 48C58.4001 48.7 57.9001 49.6 57.5001 50.5C57.7001 50.4 58.0001 50.3 58.2001 50.2C59.1001 49.8 59.7001 49.5999 60.2001 49.5999C60.6001 49.5999 60.9001 49.6999 61.2001 49.7999C61.4001 49.9999 61.8001 50.2 62.0001 50.4C62.2001 50.6 62.2001 50.5999 62.2001 50.5999C62.4001 50.5999 62.6001 50.4999 62.9001 50.2999L63.5001 49.7999L64.0001 51.5L63.7001 51.7999C63.1001 52.3999 62.5001 52.8 61.8001 53.2C61.5001 53.4 61.2001 53.6 61.0001 53.7C60.7001 53.8 60.4001 53.9 60.1001 53.9C59.6001 53.9 59.2001 53.6999 58.8001 53.2999C58.5001 52.8999 58.3001 52.8 58.1001 52.7C58.0001 52.6 57.8001 52.5999 57.7001 52.5999C57.3001 52.5999 56.9001 52.8 56.3001 53.2C55.8001 54.4 55.8001 55.3 56.0001 56C56.2001 56.6 56.6001 57 57.4001 57C58.1001 57 59.2001 56.5 60.6001 55.7L61.1001 55.2999L61.7001 56.7999L61.4001 57.0999C59.9001 58.5999 58.1001 59.2999 56.4001 59.2999Z" fill="#E01F35"/>
<path d="M62.8 62.8C62.8 61.4 62.7 60.2 62.5 59.3C62.3 58.5 62.4 57.8 62.5 57.4C62.6 57.2 62.8 56.9 63 56.8C63.2 56.6 63.6 56.4 64 56.4H64.5C64.9 56.4 65.1 56.3 65.2 56.3C65.3 56.2 65.5 56.1 65.6 56C66 55.5 66.7 54.7 67.5 53.5C68.3 52.3 69.1 51.1 70 49.8C71 48.3 71.3 47.6 71.4 47.2C71.6 46.7 71.6 46.5 71.6 46.4C71.5 46.1 71.6 45.8 71.7 45.6C71.8 45.3 72.2 45 72.9 45C73 45 73.2 45 73.6 45C74 45 74.1 45 74.2 45C74.5 45 74.7 45 75.1 45C75.5 45 75.7 45 75.9 45C76.3 45 76.4 45.1 76.6 45.3C76.8 45.6 76.7 45.9 76.5 46.3C76 47.6 75.7 49.4 75.3 51.7C75.1 53 75.1 54 75 54.6C75 55.4 75 55.9 75 56.1C75 56.2 75.1 56.3 75.1 56.4C75.2 56.4 75.3 56.4 75.4 56.4C75.9 56.4 76.1 56.6 76.2 56.8C76.3 57.1 76.4 57.4 76.2 57.7C76 58.2 75.6 58.7 74.8 59.4C73.7 60.4 72.6 61.6 71.5 63.1L71.3 63.4L69.1 63L69.7 62.3C70.5 61.2 71.1 60.4 71.3 59.8C71.6 59 71.3 58.9 71.3 58.8C70.9 58.6 70.4 58.4 69.9 58.4H68C67.4 58.4 66.9 58.5 66.4 58.9C66 59.2 65.7 59.5 65.4 60.1C65.3 60.4 65.2 60.7 65.1 61.2C65 61.7 65 62.2 65 62.6V63.2L62.7 63.6L62.8 62.8ZM71 56.5C71 56.1 71 55.6 71 55.1C71.1 53.4 71.3 51.7 71.6 50.3C71 51.2 70.3 52.3 69.5 53.5C68.7 54.7 68 55.7 67.4 56.4H71V56.5Z" fill="#E01F35"/>
<path d="M79.1001 59.2999C78.5001 59.2999 77.9001 58.8999 77.3001 58.0999C76.9001 57.3999 76.5001 56.5 76.5001 55.4C76.4001 54.4 76.5001 53.3 76.9001 52.4C77.5001 51 78.3001 49.6 79.3001 48.4C80.3001 47.1 81.4001 46.1 82.4001 45.4C83.5001 44.6 84.3001 44.2 84.9001 44.2C85.3001 44.2 85.7001 44.4 86.2001 44.7C86.6001 45 87.0001 45.3999 87.3001 46.0999C87.6001 46.6999 87.7001 47.4999 87.8001 48.2999C87.8001 49.1999 87.5001 50.1 87.1001 51.2C86.8001 52 86.2001 52.9 85.6001 53.9C84.9001 54.8 84.2001 55.6999 83.4001 56.5999C82.6001 57.3999 81.8001 58.0999 81.1001 58.5999C80.2001 58.9999 79.6001 59.2999 79.1001 59.2999ZM81.9001 48.2999C81.4001 48.8999 80.9001 49.4 80.7001 50C80.4001 50.6 80.3001 51.4 80.3001 52.2C80.3001 53 80.5001 53.7 80.8001 54.2C81.1001 54.7 81.5001 54.9 82.3001 54.9C82.6001 54.4 83.0001 54 83.2001 53.4C83.5001 52.5 83.7001 51.7 83.7001 50.9C83.7001 50.2 83.5001 49.5 83.2001 49C82.8001 48.7 82.4001 48.3999 81.9001 48.2999Z" fill="#E01F35"/>
<path d="M90.4 58.5C89.8 58.5 89.5 58.1 89.6 57.9C89.5 57.6 89.6 57.3 89.7 56.9C89.8 56.5 90.1 55.9 90.5 54.9C90.6 54.6 90.8 54.3 90.9 54C91 53.7 91.2 53.3999 91.2 53.2999L91.6 52.2C92 51.2 92.4 50.2 92.9 49.2C92.9 49.1 93 48.7999 93.3 48.2999C93.4 47.8999 93.6 47.5999 93.8 47.0999C92.4 47.1999 91.5 47.8 91 49C91 49.1 90.8 49.5 90.7 50.4L90.6 50.9L88.1 51.4L88.2 50.7999C88.3 49.7999 88.3 48.7999 88.2 47.7999C88.1 47.1999 88.2 46.6999 88.3 46.2999C88.4 45.8999 88.7 45.7 89 45.4C89.3 45.1 89.7 44.9 90 44.9C90.1 44.9 90.4 44.8999 91.3 45.0999C92 44.9999 93 45 94.3 45H98.6C100 45 101 45 101.5 44.9C102.7 44.7 102.9 44.7 103 44.7C103.4 44.7 103.7 44.8999 103.8 45.2999C103.9 45.5999 103.9 45.8999 103.7 46.2999C103.5 46.7999 103.2 47.2 102.7 47.7C102.2 48.3 101.6 48.8 101.3 49.2C101 49.6 100.5 50.0999 100.1 50.7999L99.9 51.2L97.7 50.7L98.2 50.0999C98.6 49.4999 98.9 49.1 99 48.7C99.1 48.3 99.4 47.6 99.1 47.4C98.8 47.1 98.2 47 97.6 47C97.5 47.4 97.1 48.2 97.1 48.2L96.7 49.0999C96.3 49.8999 96 50.5 95.9 50.9C95.5 51.8 95 53 94.5 54.5C93.8 56.3 93.5 57.0999 93.5 57.2999C93.3 57.7999 93.1 58 92.9 58.2C92.6 58.4 92.2 58.5 91.7 58.5H90.4V58.5Z" fill="#E01F35"/>
<path d="M100.1 58.7999C99.4 58.7999 98.8 58.4999 98.5 58.0999C98.2 57.5999 98.1 57.1 98.2 56.4C98.3 55.8 98.5 55.3 98.6 54.7C98.9 54.1 99.1 53.6 99.6 53C100 52.4 100.6 51.8999 101.1 51.2999C101.6 50.6999 102.1 50.3999 102.5 50.0999C102.8 49.7999 103.3 49.3999 104.1 48.7999C104.4 48.4999 104.8 48.2 105.2 47.9C105.6 47.6 105.8 47.2999 106 47.2999C106.1 47.1999 106.1 47.0999 106.2 47.0999C106.2 46.9999 106.3 46.7 106.4 46.4C106.4 46.1 106.5 45.8999 106.6 45.7999C106.7 45.3999 107.1 45.2 107.7 45.2H110.1C110.4 45.2 110.5 45.3 110.6 45.4C110.7 45.5 110.7 45.7 110.7 45.9V46L110.6 46.4C110.6 46.5 110.6 46.5999 110.5 46.7999C110.5 46.8999 110.5 47.1 110.3 47.4L110.2 48.0999C110.2 48.3999 110.1 48.7 110 48.9C110 49 109.9 49.2999 109.9 49.5999C109.4 51.6999 109.2 53.4 109 54.5C108.9 55.5 108.7 56.3 108.7 56.9C108.7 57.6 108.6 57.8999 108.5 58.0999C108.4 58.3999 108.1 58.7 107.4 58.7H104.8L104.6 58.5C104.5 58.2 104.5 57.9 104.5 57.7C104.5 57.4 104.7 57 104.8 56.4C104.8 56.3 104.8 56.3 104.8 56.2C103.1 57.7 101.5 58.7999 100.1 58.7999ZM105.8 49.5999C105 50.2999 104.3 51 103.9 51.5C103.1 52.5 102.8 53 102.7 53.2C102.6 53.6 102.5 53.7999 102.6 54.0999C102.6 54.1999 102.7 54.2999 102.9 54.2999C103.2 54.2999 103.5 54.2 103.8 54C104.1 53.8 104.4 53.4999 104.6 53.2999C104.8 52.9999 105 52.6999 105.1 52.5999C105.1 52.3999 105.3 52 105.5 50.9C105.7 50.2 105.8 49.8999 105.8 49.5999Z" fill="#E01F35"/>
</g>
<defs>
<clipPath id="clip0_1224_9160">
<rect width="284" height="64" fill="white"/>
</clipPath>
</defs>
</svg>
