<svg width="70" height="24" viewBox="0 0 70 24" fill="none" xmlns="http://www.w3.org/2000/svg">
<rect width="70" height="24" fill="#1AAF43"/>
<path d="M12.9014 13.045H10.4564V16H8.50637V8.5H10.4564V11.32H12.9014V8.5H14.8514V16H12.9014V13.045ZM16.203 12.25C16.203 10.98 16.513 10.005 17.133 9.325C17.753 8.635 18.623 8.29 19.743 8.29C20.343 8.29 20.863 8.385 21.303 8.575C21.743 8.765 22.108 9.035 22.398 9.385C22.688 9.725 22.903 10.14 23.043 10.63C23.193 11.12 23.268 11.66 23.268 12.25C23.268 13.52 22.958 14.5 22.338 15.19C21.728 15.87 20.863 16.21 19.743 16.21C19.143 16.21 18.623 16.115 18.183 15.925C17.743 15.735 17.373 15.47 17.073 15.13C16.783 14.78 16.563 14.36 16.413 13.87C16.273 13.38 16.203 12.84 16.203 12.25ZM18.213 12.25C18.213 12.58 18.243 12.885 18.303 13.165C18.363 13.445 18.453 13.69 18.573 13.9C18.693 14.11 18.848 14.275 19.038 14.395C19.238 14.505 19.473 14.56 19.743 14.56C20.253 14.56 20.633 14.375 20.883 14.005C21.133 13.635 21.258 13.05 21.258 12.25C21.258 11.56 21.143 11.005 20.913 10.585C20.683 10.155 20.293 9.94 19.743 9.94C19.263 9.94 18.888 10.12 18.618 10.48C18.348 10.84 18.213 11.43 18.213 12.25ZM24.6196 8.515C24.9696 8.485 25.3896 8.455 25.8796 8.425C26.3796 8.395 26.9146 8.38 27.4846 8.38C28.5846 8.38 29.3646 8.54 29.8246 8.86C30.2946 9.17 30.5296 9.64 30.5296 10.27C30.5296 10.62 30.4296 10.96 30.2296 11.29C30.0296 11.62 29.7146 11.86 29.2846 12.01V12.07C29.8246 12.19 30.2146 12.405 30.4546 12.715C30.6946 13.015 30.8146 13.405 30.8146 13.885C30.8146 14.635 30.5246 15.195 29.9446 15.565C29.3746 15.935 28.4546 16.12 27.1846 16.12C26.7646 16.12 26.3196 16.105 25.8496 16.075C25.3796 16.055 24.9696 16.025 24.6196 15.985V8.515ZM26.5246 14.5C26.6646 14.52 26.7946 14.535 26.9146 14.545C27.0346 14.555 27.1846 14.56 27.3646 14.56C27.9046 14.56 28.2896 14.485 28.5196 14.335C28.7496 14.185 28.8646 13.955 28.8646 13.645C28.8646 13.385 28.7646 13.175 28.5646 13.015C28.3746 12.845 28.0296 12.76 27.5296 12.76H26.5246V14.5ZM27.5596 11.56C27.8796 11.56 28.1396 11.485 28.3396 11.335C28.5496 11.175 28.6546 10.975 28.6546 10.735C28.6546 10.475 28.5646 10.28 28.3846 10.15C28.2146 10.01 27.8996 9.94 27.4396 9.94C27.2096 9.94 27.0246 9.945 26.8846 9.955C26.7546 9.965 26.6346 9.975 26.5246 9.985V11.56H27.5596ZM36.7079 12.58L36.7829 11.515H36.7379L36.0929 12.61L33.4229 16H32.1929V8.5H34.1429V12.07L34.0529 13.09H34.1129L34.7279 12.025L37.4279 8.5H38.6579V16H36.7079V12.58ZM44.7617 13.045H42.3167V16H40.3667V8.5H42.3167V11.32H44.7617V8.5H46.7117V16H44.7617V13.045ZM50.8984 12.895H50.3734V16H48.4234V8.5H50.3734V11.695L50.8384 11.485L52.5934 8.5H54.6784L52.8634 11.35L52.0984 11.92L52.9384 12.505L54.9634 16H52.7284L50.8984 12.895ZM55.7172 8.935C56.1172 8.755 56.5922 8.615 57.1422 8.515C57.6922 8.405 58.2672 8.35 58.8672 8.35C59.3872 8.35 59.8222 8.415 60.1722 8.545C60.5222 8.665 60.7972 8.84 60.9972 9.07C61.2072 9.3 61.3522 9.575 61.4322 9.895C61.5222 10.215 61.5672 10.575 61.5672 10.975C61.5672 11.415 61.5522 11.86 61.5222 12.31C61.4922 12.75 61.4722 13.185 61.4622 13.615C61.4622 14.045 61.4772 14.465 61.5072 14.875C61.5372 15.275 61.6122 15.655 61.7322 16.015H60.1422L59.8272 14.98H59.7522C59.5522 15.29 59.2722 15.56 58.9122 15.79C58.5622 16.01 58.1072 16.12 57.5472 16.12C57.1972 16.12 56.8822 16.07 56.6022 15.97C56.3222 15.86 56.0822 15.71 55.8822 15.52C55.6822 15.32 55.5272 15.09 55.4172 14.83C55.3072 14.56 55.2522 14.26 55.2522 13.93C55.2522 13.47 55.3522 13.085 55.5522 12.775C55.7622 12.455 56.0572 12.2 56.4372 12.01C56.8272 11.81 57.2872 11.675 57.8172 11.605C58.3572 11.525 58.9572 11.5 59.6172 11.53C59.6872 10.97 59.6472 10.57 59.4972 10.33C59.3472 10.08 59.0122 9.955 58.4922 9.955C58.1022 9.955 57.6872 9.995 57.2472 10.075C56.8172 10.155 56.4622 10.26 56.1822 10.39L55.7172 8.935ZM58.1922 14.515C58.5822 14.515 58.8922 14.43 59.1222 14.26C59.3522 14.08 59.5222 13.89 59.6322 13.69V12.715C59.3222 12.685 59.0222 12.68 58.7322 12.7C58.4522 12.72 58.2022 12.765 57.9822 12.835C57.7622 12.905 57.5872 13.005 57.4572 13.135C57.3272 13.265 57.2622 13.43 57.2622 13.63C57.2622 13.91 57.3422 14.13 57.5022 14.29C57.6722 14.44 57.9022 14.515 58.1922 14.515Z" fill="white"/>
</svg>
