<svg width="200" height="55" viewBox="0 0 200 55" fill="none" xmlns="http://www.w3.org/2000/svg">
<path d="M76.0105 1.13807L58.834 45.9479H68.06L71.591 36.5853H89.8155L93.3617 45.9479H102.519L85.4492 1.13807H76.0105ZM74.7577 28.3607L80.7564 12.5947L86.7325 28.3607H74.7577ZM113.545 34.3926L106.096 14.4688H97.2951L109.293 45.9479H118.018L129.803 14.4688H121.002L113.545 34.3926ZM140.874 14.4688H132.499V45.9479H140.874V14.4688ZM136.683 12.2002C140.054 12.2002 142.788 9.46906 142.788 6.10009C142.788 2.7311 140.054 0 136.683 0C133.311 0 130.577 2.7311 130.577 6.10009C130.577 9.46906 133.311 12.2002 136.683 12.2002ZM157.474 6.06973H149.121V14.4156H144.223V22.0027H149.121V35.3789C149.121 42.9662 153.305 46.2286 159.197 46.2286C161.186 46.2548 163.159 45.8698 164.991 45.0982V37.2984C163.991 37.6645 162.935 37.8569 161.87 37.8675C159.311 37.8675 157.466 36.8736 157.466 33.4669V22.0027H164.991V14.4915H157.474V6.06973ZM182.6 13.8997C179.371 13.8982 176.213 14.8538 173.527 16.6457C170.841 18.4376 168.748 20.9851 167.511 23.9661C166.274 26.9472 165.95 30.2276 166.58 33.3927C167.21 36.5576 168.765 39.4649 171.048 41.7468C173.332 44.0286 176.242 45.5823 179.41 46.2115C182.577 46.8406 185.86 46.517 188.844 45.2813C191.827 44.0458 194.378 41.9538 196.17 39.2702C197.963 36.5864 198.921 33.4316 198.919 30.2045C198.917 25.8808 197.196 21.7349 194.137 18.6774C191.077 15.6202 186.928 13.9017 182.6 13.8997ZM182.6 38.1786C181.028 38.1801 179.49 37.7155 178.181 36.8436C176.873 35.9716 175.853 34.7316 175.25 33.2801C174.647 31.8287 174.488 30.2313 174.794 28.6898C175.1 27.1484 175.857 25.7323 176.968 24.6206C178.08 23.5088 179.497 22.7515 181.039 22.4444C182.581 22.1371 184.179 22.2941 185.633 22.895C187.086 23.4962 188.328 24.5142 189.203 25.8208C190.077 27.1273 190.543 28.6634 190.543 30.235C190.539 32.3363 189.701 34.3502 188.211 35.8341C186.721 37.318 184.704 38.1504 182.6 38.1484V38.1786Z" fill="#171717"/>
<path d="M16.326 50.4166C25.3426 50.4166 32.6521 43.1133 32.6521 34.1041C32.6521 25.0951 25.3426 17.7917 16.326 17.7917C7.30941 17.7917 0 25.0951 0 34.1041C0 43.1133 7.30941 50.4166 16.326 50.4166Z" fill="#04E061"/>
<path d="M44.6424 48.3606C50.0901 48.3606 54.5062 43.9481 54.5062 38.505C54.5062 33.0618 50.0901 28.6492 44.6424 28.6492C39.1947 28.6492 34.7783 33.0618 34.7783 38.505C34.7783 43.9481 39.1947 48.3606 44.6424 48.3606Z" fill="#FF4053"/>
<path d="M19.447 15.675C22.8187 15.675 25.5521 12.9439 25.5521 9.57494C25.5521 6.20595 22.8187 3.47485 19.447 3.47485C16.0752 3.47485 13.3418 6.20595 13.3418 9.57494C13.3418 12.9439 16.0752 15.675 19.447 15.675Z" fill="#965EEB"/>
<path d="M40.8078 26.5247C48.1384 26.5247 54.0811 20.587 54.0811 13.2624C54.0811 5.93776 48.1384 0 40.8078 0C33.4769 0 27.5342 5.93776 27.5342 13.2624C27.5342 20.587 33.4769 26.5247 40.8078 26.5247Z" fill="#00AAFF"/>
</svg>
