<svg width="60" height="60" viewBox="0 0 60 60" fill="none" xmlns="http://www.w3.org/2000/svg">
<circle cx="30" cy="30" r="30" fill="#FFEDBF"/>
<path d="M29.9995 35.3788C29.1049 35.3788 28.355 36.1222 28.355 37.0091C28.355 37.896 29.1049 38.6394 29.9995 38.6394C30.8612 38.6394 31.644 37.896 31.6046 37.0482C31.644 36.1157 30.9007 35.3788 29.9995 35.3788Z" fill="#FFB900" stroke="#FFB900" stroke-width="0.5"/>
<path d="M45.2213 41.1567C46.2541 39.3895 46.2606 37.2831 45.2345 35.5224L34.9332 17.8367C33.9136 16.0564 32.0717 15 30.0062 15C27.9407 15 26.0988 16.063 25.0792 17.8302L14.7647 35.5354C13.7386 37.3157 13.7451 39.4351 14.7845 41.2024C15.8107 42.9501 17.6459 44 19.6983 44H40.2746C42.3335 44 44.182 42.937 45.2213 41.1567ZM42.9847 39.8786C42.4125 40.8568 41.3994 41.4372 40.268 41.4372H19.6917C18.5735 41.4372 17.567 40.8698 17.0079 39.9112C16.4421 38.9395 16.4356 37.7787 17.0013 36.8005L27.3157 19.1019C27.8749 18.1302 28.8747 17.5563 30.0062 17.5563C31.131 17.5563 32.1375 18.1367 32.6966 19.1084L43.0045 36.8071C43.557 37.7592 43.5505 38.9069 42.9847 39.8786Z" fill="#FFB900" stroke="#FFB900" stroke-width="0.5"/>
<path d="M29.5916 23.9341C28.8088 24.1558 28.322 24.8601 28.322 25.7144C28.3615 26.2296 28.3944 26.7513 28.4338 27.2664C28.5457 29.2293 28.6575 31.1531 28.7693 33.116C28.8088 33.7812 29.3285 34.2637 29.9994 34.2637C30.6704 34.2637 31.1966 33.7486 31.2295 33.0769C31.2295 32.6726 31.2295 32.3009 31.269 31.89C31.3414 30.6314 31.4203 29.3728 31.4927 28.1142C31.5321 27.2991 31.6045 26.4839 31.644 25.6687C31.644 25.3753 31.6045 25.1144 31.4927 24.8536C31.1572 24.1232 30.3744 23.7515 29.5916 23.9341Z" fill="#FFB900" stroke="#FFB900" stroke-width="0.5"/>
</svg>
