<svg width="30" height="30" viewBox="0 0 30 30" fill="none" xmlns="http://www.w3.org/2000/svg">
<g clip-path="url(#clip0_1224_18620)">
<path d="M0.0548706 29.9453L2.16952 22.2703C0.865122 20.024 0.179012 17.4758 0.179969 14.8653C0.183325 6.69862 6.86993 0.0544434 15.0865 0.0544434C19.0737 0.0561141 22.8163 1.59861 25.6307 4.39824C28.4449 7.19789 29.9942 10.9193 29.9928 14.8772C29.9892 23.0437 23.3016 29.6888 15.0865 29.6888C15.086 29.6888 15.0867 29.6888 15.0865 29.6888H15.0801C12.5853 29.6879 10.1342 29.066 7.95699 27.8858L0.0548706 29.9453ZM8.32294 25.2045L8.77564 25.4711C10.6775 26.5929 12.858 27.1862 15.0817 27.1874H15.0865C21.915 27.1874 27.4729 21.6644 27.4758 14.8763C27.477 11.5867 26.1896 8.49338 23.8504 6.16655C21.511 3.8397 18.4006 2.55754 15.091 2.55611C8.25705 2.55611 2.69938 8.07844 2.69674 14.8663C2.69578 17.1924 3.3505 19.4575 4.59091 21.4178L4.88568 21.8837L3.63377 26.4264L8.32294 25.2045Z" fill="white"/>
<path d="M0.573242 29.4283L2.61479 22.0185C1.35521 19.8501 0.693064 17.3898 0.693782 14.8701C0.696899 6.98612 7.15227 0.572021 15.0839 0.572021C18.9336 0.573692 22.5468 2.06283 25.2631 4.76552C27.9802 7.46819 29.4756 11.0608 29.4742 14.8813C29.4709 22.7654 23.0152 29.1803 15.0846 29.1803C15.0839 29.1803 15.0848 29.1803 15.0846 29.1803H15.0781C12.6699 29.1793 10.3034 28.5786 8.20172 27.4401L0.573242 29.4283Z" fill="#2FA346"/>
<path d="M0.0548706 29.9453L2.16952 22.2703C0.865122 20.024 0.179012 17.4758 0.179969 14.8653C0.183325 6.69862 6.86993 0.0544434 15.0865 0.0544434C19.0737 0.0561141 22.8163 1.59861 25.6307 4.39824C28.4449 7.19789 29.9942 10.9193 29.9928 14.8772C29.9892 23.0437 23.3016 29.6888 15.0865 29.6888C15.086 29.6888 15.0867 29.6888 15.0865 29.6888H15.0801C12.5853 29.6879 10.1342 29.066 7.95699 27.8858L0.0548706 29.9453ZM8.32294 25.2045L8.77564 25.4711C10.6775 26.5929 12.858 27.1862 15.0817 27.1874H15.0865C21.915 27.1874 27.4729 21.6644 27.4758 14.8763C27.477 11.5867 26.1896 8.49338 23.8504 6.16655C21.511 3.8397 18.4006 2.55754 15.091 2.55611C8.25705 2.55611 2.69938 8.07844 2.69674 14.8663C2.69578 17.1924 3.3505 19.4575 4.59091 21.4178L4.88568 21.8837L3.63377 26.4264L8.32294 25.2045Z" fill="white"/>
<path fill-rule="evenodd" clip-rule="evenodd" d="M11.361 8.6735C11.082 8.0571 10.7882 8.04472 10.5227 8.03399C10.3055 8.02472 10.0571 8.02515 9.80902 8.02515C9.56073 8.02515 9.15718 8.11808 8.81589 8.48844C8.47442 8.85881 7.51196 9.75442 7.51196 11.5758C7.51196 13.3975 8.84681 15.1574 9.03301 15.4047C9.2192 15.6517 11.6097 19.5088 15.3954 20.9927C18.5417 22.2261 19.1818 21.9807 19.8648 21.9191C20.5479 21.8573 22.0684 21.0234 22.3787 20.1591C22.6893 19.2947 22.6893 18.5539 22.5961 18.3989C22.5029 18.2448 22.2546 18.1521 21.8822 17.967C21.5098 17.782 19.6786 16.8862 19.3371 16.7628C18.9956 16.6392 18.7474 16.5777 18.4991 16.9483C18.2506 17.3184 17.5374 18.1521 17.32 18.3989C17.1026 18.6464 16.8853 18.6773 16.5129 18.492C16.1405 18.3065 14.9408 17.9158 13.5178 16.6547C12.4106 15.6736 11.6629 14.4617 11.4455 14.0911C11.2284 13.7209 11.442 13.538 11.6092 13.3358C11.9105 12.9716 12.4159 12.3168 12.54 12.07C12.6642 11.8228 12.6021 11.6068 12.5091 11.4215C12.4159 11.2364 11.6919 9.4057 11.361 8.6735Z" fill="white"/>
</g>
<defs>
<clipPath id="clip0_1224_18620">
<rect width="30" height="30" fill="white"/>
</clipPath>
</defs>
</svg>
